<svg width="38" height="38" viewBox="0 0 38 38" fill="none" xmlns="http://www.w3.org/2000/svg">
<g filter="url(#filter0_d_132_64)">
<mask id="path-1-outside-1_132_64" maskUnits="userSpaceOnUse" x="4.78174" y="3.78183" width="28" height="28" fill="black">
<rect fill="white" x="4.78174" y="3.78183" width="28" height="28"/>
<path d="M25.1089 5.78183C25.7836 5.78183 26.3305 6.32877 26.3306 7.00351H28.7739C30.1234 7.00351 31.2181 8.09744 31.2183 9.44687V27.774C31.2183 29.1236 30.1235 30.2184 28.7739 30.2184H9.2251C7.87559 30.2183 6.78174 29.1235 6.78174 27.774V9.44687C6.78192 8.09749 7.8757 7.00359 9.2251 7.00351H11.6685C11.6685 6.32877 12.2164 5.78183 12.8911 5.78183C13.5657 5.78205 14.1127 6.3289 14.1128 7.00351H23.8872C23.8873 6.32883 24.4342 5.78194 25.1089 5.78183Z"/>
</mask>
<path d="M25.1089 5.78183C25.7836 5.78183 26.3305 6.32877 26.3306 7.00351H28.7739C30.1234 7.00351 31.2181 8.09744 31.2183 9.44687V27.774C31.2183 29.1236 30.1235 30.2184 28.7739 30.2184H9.2251C7.87559 30.2183 6.78174 29.1235 6.78174 27.774V9.44687C6.78192 8.09749 7.8757 7.00359 9.2251 7.00351H11.6685C11.6685 6.32877 12.2164 5.78183 12.8911 5.78183C13.5657 5.78205 14.1127 6.3289 14.1128 7.00351H23.8872C23.8873 6.32883 24.4342 5.78194 25.1089 5.78183Z" fill="#F5F5F5"/>
<path d="M25.1089 5.78183L25.1089 4.76365L25.1087 4.76365L25.1089 5.78183ZM26.3306 7.00351L25.3124 7.0036L25.3125 8.02169H26.3306V7.00351ZM31.2183 9.44687L32.2364 9.44687L32.2364 9.44673L31.2183 9.44687ZM9.2251 30.2184L9.22503 31.2365H9.2251V30.2184ZM6.78174 9.44687L5.76356 9.44673V9.44687H6.78174ZM9.2251 7.00351L9.2251 5.98533L9.22503 5.98533L9.2251 7.00351ZM11.6685 7.00351V8.02169H12.6865L12.6866 7.0036L11.6685 7.00351ZM12.8911 5.78183L12.8914 4.76365H12.8911V5.78183ZM14.1128 7.00351L13.0946 7.0036L13.0947 8.02169H14.1128V7.00351ZM23.8872 7.00351V8.02169H24.9053L24.9054 7.0036L23.8872 7.00351ZM25.1089 5.78183V6.80001C25.2212 6.80001 25.3124 6.89103 25.3124 7.0036L26.3306 7.00351L27.3487 7.00342C27.3486 5.76651 26.3461 4.76365 25.1089 4.76365V5.78183ZM26.3306 7.00351V8.02169H28.7739V7.00351V5.98533H26.3306V7.00351ZM28.7739 7.00351V8.02169C29.5615 8.02169 30.2 8.66019 30.2001 9.447L31.2183 9.44687L32.2364 9.44673C32.2362 7.53469 30.6853 5.98533 28.7739 5.98533V7.00351ZM31.2183 9.44687H30.2001V27.774H31.2183H32.2364V9.44687H31.2183ZM31.2183 27.774H30.2001C30.2001 28.5613 29.5612 29.2002 28.7739 29.2002V30.2184V31.2365C30.6858 31.2365 32.2364 29.6859 32.2364 27.774H31.2183ZM28.7739 30.2184V29.2002H9.2251V30.2184V31.2365H28.7739V30.2184ZM9.2251 30.2184L9.22516 29.2002C8.43839 29.2001 7.79992 28.5617 7.79992 27.774H6.78174H5.76356C5.76356 29.6854 7.31278 31.2364 9.22503 31.2365L9.2251 30.2184ZM6.78174 27.774H7.79992V9.44687H6.78174H5.76356V27.774H6.78174ZM6.78174 9.44687L7.79992 9.447C7.80002 8.65977 8.43811 8.02174 9.22516 8.02169L9.2251 7.00351L9.22503 5.98533C7.31328 5.98545 5.76381 7.5352 5.76356 9.44673L6.78174 9.44687ZM9.2251 7.00351V8.02169H11.6685V7.00351V5.98533H9.2251V7.00351ZM11.6685 7.00351L12.6866 7.0036C12.6866 6.89208 12.7777 6.80001 12.8911 6.80001V5.78183V4.76365C11.655 4.76365 10.6504 5.76545 10.6503 7.00342L11.6685 7.00351ZM12.8911 5.78183L12.8908 6.80001C13.0035 6.80005 13.0946 6.8915 13.0946 7.0036L14.1128 7.00351L15.131 7.00342C15.1309 5.76631 14.1278 4.76405 12.8914 4.76365L12.8911 5.78183ZM14.1128 7.00351V8.02169H23.8872V7.00351V5.98533H14.1128V7.00351ZM23.8872 7.00351L24.9054 7.0036C24.9054 6.89125 24.9965 6.80003 25.109 6.80001L25.1089 5.78183L25.1087 4.76365C23.8719 4.76385 22.8691 5.76642 22.869 7.00342L23.8872 7.00351Z" fill="white" mask="url(#path-1-outside-1_132_64)"/>
</g>
<rect x="6.78174" y="7.0036" width="24.4364" height="23.2145" rx="2.44364" fill="#1A1A1A"/>
<mask id="path-4-inside-2_132_64" fill="white">
<path d="M6.78174 9.44724C6.78174 8.09765 7.87579 7.0036 9.22537 7.0036H28.7745C30.124 7.0036 31.2181 8.09765 31.2181 9.44724V11.8909H6.78174V9.44724Z"/>
</mask>
<path d="M6.78174 9.44724C6.78174 8.09765 7.87579 7.0036 9.22537 7.0036H28.7745C30.124 7.0036 31.2181 8.09765 31.2181 9.44724V11.8909H6.78174V9.44724Z" fill="#1A1A1A"/>
<path d="M6.78174 7.0036H31.2181H6.78174ZM31.2181 13.1127H6.78174V10.6691H31.2181V13.1127ZM6.78174 11.8909V7.0036V11.8909ZM31.2181 7.0036V11.8909V7.0036Z" fill="#F7F7F7" mask="url(#path-4-inside-2_132_64)"/>
<rect x="11.6689" y="5.78183" width="2.44364" height="3.66545" rx="1.22182" fill="#1A1A1A"/>
<rect x="23.8877" y="5.78183" width="2.44364" height="3.66545" rx="1.22182" fill="#1A1A1A"/>
<rect x="6.78174" y="18" width="6.10909" height="6.10909" fill="white"/>
<rect x="12.8911" y="11.8909" width="6.10909" height="6.10909" fill="white"/>
<rect x="12.8911" y="24.1091" width="6.10909" height="6.10909" fill="white"/>
<path d="M25.1084 24.1091H31.2175V27.7745C31.2175 29.1241 30.1234 30.2182 28.7739 30.2182H25.1084V24.1091Z" fill="white"/>
<rect x="19" y="18" width="6.10909" height="6.10909" fill="white"/>
<rect x="25.1084" y="11.8909" width="6.10909" height="6.10909" fill="white"/>
<defs>
<filter id="filter0_d_132_64" x="0.672763" y="0.94546" width="36.6545" height="36.6547" filterUnits="userSpaceOnUse" color-interpolation-filters="sRGB">
<feFlood flood-opacity="0" result="BackgroundImageFix"/>
<feColorMatrix in="SourceAlpha" type="matrix" values="0 0 0 0 0 0 0 0 0 0 0 0 0 0 0 0 0 0 127 0" result="hardAlpha"/>
<feOffset dy="1.27273"/>
<feGaussianBlur stdDeviation="2.54545"/>
<feComposite in2="hardAlpha" operator="out"/>
<feColorMatrix type="matrix" values="0 0 0 0 0 0 0 0 0 0 0 0 0 0 0 0 0 0 0.15 0"/>
<feBlend mode="normal" in2="BackgroundImageFix" result="effect1_dropShadow_132_64"/>
<feBlend mode="normal" in="SourceGraphic" in2="effect1_dropShadow_132_64" result="shape"/>
</filter>
</defs>
</svg>
