<svg width="165" height="38" viewBox="0 0 165 38" fill="none" xmlns="http://www.w3.org/2000/svg">
<g filter="url(#filter0_d_133_186)">
<mask id="path-1-outside-1_133_186" maskUnits="userSpaceOnUse" x="4.78174" y="3.78183" width="28" height="28" fill="black">
<rect fill="white" x="4.78174" y="3.78183" width="28" height="28"/>
<path d="M25.1089 5.78183C25.7836 5.78183 26.3305 6.32877 26.3306 7.00351H28.7739C30.1234 7.00351 31.2181 8.09744 31.2183 9.44687V27.774C31.2183 29.1236 30.1235 30.2184 28.7739 30.2184H9.2251C7.87559 30.2183 6.78174 29.1235 6.78174 27.774V9.44687C6.78192 8.09749 7.8757 7.00359 9.2251 7.00351H11.6685C11.6685 6.32877 12.2164 5.78183 12.8911 5.78183C13.5657 5.78205 14.1127 6.3289 14.1128 7.00351H23.8872C23.8873 6.32883 24.4342 5.78194 25.1089 5.78183Z"/>
</mask>
<path d="M25.1089 5.78183C25.7836 5.78183 26.3305 6.32877 26.3306 7.00351H28.7739C30.1234 7.00351 31.2181 8.09744 31.2183 9.44687V27.774C31.2183 29.1236 30.1235 30.2184 28.7739 30.2184H9.2251C7.87559 30.2183 6.78174 29.1235 6.78174 27.774V9.44687C6.78192 8.09749 7.8757 7.00359 9.2251 7.00351H11.6685C11.6685 6.32877 12.2164 5.78183 12.8911 5.78183C13.5657 5.78205 14.1127 6.3289 14.1128 7.00351H23.8872C23.8873 6.32883 24.4342 5.78194 25.1089 5.78183Z" fill="#F5F5F5"/>
<path d="M25.1089 5.78183L25.1089 4.76365L25.1087 4.76365L25.1089 5.78183ZM26.3306 7.00351L25.3124 7.0036L25.3125 8.02169H26.3306V7.00351ZM31.2183 9.44687L32.2364 9.44687L32.2364 9.44673L31.2183 9.44687ZM9.2251 30.2184L9.22503 31.2365H9.2251V30.2184ZM6.78174 9.44687L5.76356 9.44673V9.44687H6.78174ZM9.2251 7.00351L9.2251 5.98533L9.22503 5.98533L9.2251 7.00351ZM11.6685 7.00351V8.02169H12.6865L12.6866 7.0036L11.6685 7.00351ZM12.8911 5.78183L12.8914 4.76365H12.8911V5.78183ZM14.1128 7.00351L13.0946 7.0036L13.0947 8.02169H14.1128V7.00351ZM23.8872 7.00351V8.02169H24.9053L24.9054 7.0036L23.8872 7.00351ZM25.1089 5.78183V6.80001C25.2212 6.80001 25.3124 6.89103 25.3124 7.0036L26.3306 7.00351L27.3487 7.00342C27.3486 5.76651 26.3461 4.76365 25.1089 4.76365V5.78183ZM26.3306 7.00351V8.02169H28.7739V7.00351V5.98533H26.3306V7.00351ZM28.7739 7.00351V8.02169C29.5615 8.02169 30.2 8.66019 30.2001 9.447L31.2183 9.44687L32.2364 9.44673C32.2362 7.53469 30.6853 5.98533 28.7739 5.98533V7.00351ZM31.2183 9.44687H30.2001V27.774H31.2183H32.2364V9.44687H31.2183ZM31.2183 27.774H30.2001C30.2001 28.5613 29.5612 29.2002 28.7739 29.2002V30.2184V31.2365C30.6858 31.2365 32.2364 29.6859 32.2364 27.774H31.2183ZM28.7739 30.2184V29.2002H9.2251V30.2184V31.2365H28.7739V30.2184ZM9.2251 30.2184L9.22516 29.2002C8.43839 29.2001 7.79992 28.5617 7.79992 27.774H6.78174H5.76356C5.76356 29.6854 7.31278 31.2364 9.22503 31.2365L9.2251 30.2184ZM6.78174 27.774H7.79992V9.44687H6.78174H5.76356V27.774H6.78174ZM6.78174 9.44687L7.79992 9.447C7.80002 8.65977 8.43811 8.02174 9.22516 8.02169L9.2251 7.00351L9.22503 5.98533C7.31328 5.98545 5.76381 7.5352 5.76356 9.44673L6.78174 9.44687ZM9.2251 7.00351V8.02169H11.6685V7.00351V5.98533H9.2251V7.00351ZM11.6685 7.00351L12.6866 7.0036C12.6866 6.89208 12.7777 6.80001 12.8911 6.80001V5.78183V4.76365C11.655 4.76365 10.6504 5.76545 10.6503 7.00342L11.6685 7.00351ZM12.8911 5.78183L12.8908 6.80001C13.0035 6.80005 13.0946 6.8915 13.0946 7.0036L14.1128 7.00351L15.131 7.00342C15.1309 5.76631 14.1278 4.76405 12.8914 4.76365L12.8911 5.78183ZM14.1128 7.00351V8.02169H23.8872V7.00351V5.98533H14.1128V7.00351ZM23.8872 7.00351L24.9054 7.0036C24.9054 6.89125 24.9965 6.80003 25.109 6.80001L25.1089 5.78183L25.1087 4.76365C23.8719 4.76385 22.8691 5.76642 22.869 7.00342L23.8872 7.00351Z" fill="white" mask="url(#path-1-outside-1_133_186)"/>
</g>
<rect x="6.78174" y="7.0036" width="24.4364" height="23.2145" rx="2.44364" fill="#1A1A1A"/>
<mask id="path-4-inside-2_133_186" fill="white">
<path d="M6.78174 9.44724C6.78174 8.09765 7.87579 7.0036 9.22537 7.0036H28.7745C30.124 7.0036 31.2181 8.09765 31.2181 9.44724V11.8909H6.78174V9.44724Z"/>
</mask>
<path d="M6.78174 9.44724C6.78174 8.09765 7.87579 7.0036 9.22537 7.0036H28.7745C30.124 7.0036 31.2181 8.09765 31.2181 9.44724V11.8909H6.78174V9.44724Z" fill="#1A1A1A"/>
<path d="M6.78174 7.0036H31.2181H6.78174ZM31.2181 13.1127H6.78174V10.6691H31.2181V13.1127ZM6.78174 11.8909V7.0036V11.8909ZM31.2181 7.0036V11.8909V7.0036Z" fill="#F7F7F7" mask="url(#path-4-inside-2_133_186)"/>
<rect x="11.6689" y="5.78183" width="2.44364" height="3.66545" rx="1.22182" fill="#1A1A1A"/>
<rect x="23.8872" y="5.78183" width="2.44364" height="3.66545" rx="1.22182" fill="#1A1A1A"/>
<rect x="6.78174" y="18" width="6.10909" height="6.10909" fill="white"/>
<rect x="12.8911" y="11.8909" width="6.10909" height="6.10909" fill="white"/>
<rect x="12.8911" y="24.1091" width="6.10909" height="6.10909" fill="white"/>
<path d="M25.1089 24.1091H31.218V27.7745C31.218 29.1241 30.1239 30.2182 28.7743 30.2182H25.1089V24.1091Z" fill="white"/>
<rect x="19" y="18" width="6.10909" height="6.10909" fill="white"/>
<rect x="25.1089" y="11.8909" width="6.10909" height="6.10909" fill="white"/>
<path d="M52.528 26.74C51.328 26.74 50.216 26.524 49.192 26.092C48.168 25.644 47.272 25.028 46.504 24.244C45.752 23.46 45.168 22.548 44.752 21.508C44.336 20.468 44.128 19.356 44.128 18.172C44.128 16.972 44.336 15.852 44.752 14.812C45.168 13.772 45.752 12.868 46.504 12.1C47.272 11.316 48.16 10.708 49.168 10.276C50.192 9.828 51.304 9.604 52.504 9.604C53.816 9.604 54.968 9.828 55.96 10.276C56.952 10.724 57.832 11.332 58.6 12.1L57.04 13.66C56.512 13.068 55.864 12.604 55.096 12.268C54.344 11.932 53.48 11.764 52.504 11.764C51.624 11.764 50.816 11.924 50.08 12.244C49.344 12.548 48.704 12.988 48.16 13.564C47.616 14.14 47.192 14.82 46.888 15.604C46.6 16.388 46.456 17.244 46.456 18.172C46.456 19.1 46.6 19.956 46.888 20.74C47.192 21.524 47.616 22.204 48.16 22.78C48.704 23.356 49.344 23.804 50.08 24.124C50.816 24.428 51.624 24.58 52.504 24.58C53.544 24.58 54.448 24.412 55.216 24.076C55.984 23.724 56.632 23.252 57.16 22.66L58.72 24.196C57.952 24.996 57.048 25.62 56.008 26.068C54.984 26.516 53.824 26.74 52.528 26.74ZM69.1714 26.5V19.852C69.1714 18.988 68.8994 18.276 68.3554 17.716C67.8114 17.156 67.1074 16.876 66.2434 16.876C65.6674 16.876 65.1554 17.004 64.7074 17.26C64.2594 17.516 63.9074 17.868 63.6514 18.316C63.3954 18.764 63.2674 19.276 63.2674 19.852L62.3794 19.348C62.3794 18.484 62.5714 17.716 62.9554 17.044C63.3394 16.372 63.8754 15.844 64.5634 15.46C65.2514 15.06 66.0274 14.86 66.8914 14.86C67.7554 14.86 68.5154 15.052 69.1714 15.436C69.8434 15.82 70.3714 16.356 70.7554 17.044C71.1394 17.732 71.3314 18.524 71.3314 19.42V26.5H69.1714ZM61.1074 26.5V9.364H63.2674V26.5H61.1074ZM79.5359 26.74C78.3999 26.74 77.3759 26.484 76.4639 25.972C75.5519 25.444 74.8319 24.732 74.3039 23.836C73.7759 22.94 73.5119 21.924 73.5119 20.788C73.5119 19.668 73.7679 18.66 74.2799 17.764C74.8079 16.868 75.5119 16.164 76.3919 15.652C77.2879 15.124 78.2879 14.86 79.3919 14.86C80.4479 14.86 81.3759 15.1 82.1759 15.58C82.9919 16.06 83.6239 16.724 84.0719 17.572C84.5359 18.42 84.7679 19.38 84.7679 20.452C84.7679 20.612 84.7599 20.788 84.7439 20.98C84.7279 21.156 84.6959 21.364 84.6479 21.604H75.0239V19.804H83.4959L82.7039 20.5C82.7039 19.732 82.5679 19.084 82.2959 18.556C82.0239 18.012 81.6399 17.596 81.1439 17.308C80.6479 17.004 80.0479 16.852 79.3439 16.852C78.6079 16.852 77.9599 17.012 77.3999 17.332C76.8399 17.652 76.4079 18.1 76.1039 18.676C75.7999 19.252 75.6479 19.932 75.6479 20.716C75.6479 21.516 75.8079 22.22 76.1279 22.828C76.4479 23.42 76.9039 23.884 77.4959 24.22C78.0879 24.54 78.7679 24.7 79.5359 24.7C80.1759 24.7 80.7599 24.588 81.2879 24.364C81.8319 24.14 82.2959 23.804 82.6799 23.356L84.0719 24.772C83.5279 25.412 82.8559 25.9 82.0559 26.236C81.2719 26.572 80.4319 26.74 79.5359 26.74ZM92.3311 26.74C91.2111 26.74 90.1951 26.476 89.2831 25.948C88.3871 25.42 87.6751 24.708 87.1471 23.812C86.6351 22.9 86.3791 21.892 86.3791 20.788C86.3791 19.668 86.6351 18.66 87.1471 17.764C87.6751 16.868 88.3871 16.164 89.2831 15.652C90.1951 15.124 91.2111 14.86 92.3311 14.86C93.2111 14.86 94.0271 15.028 94.7791 15.364C95.5311 15.684 96.1791 16.156 96.7231 16.78L95.2831 18.22C94.9311 17.804 94.4991 17.492 93.9871 17.284C93.4911 17.06 92.9391 16.948 92.3311 16.948C91.6111 16.948 90.9711 17.116 90.4111 17.452C89.8511 17.772 89.4111 18.22 89.0911 18.796C88.7711 19.372 88.6111 20.036 88.6111 20.788C88.6111 21.54 88.7711 22.204 89.0911 22.78C89.4111 23.356 89.8511 23.812 90.4111 24.148C90.9711 24.484 91.6111 24.652 92.3311 24.652C92.9391 24.652 93.4911 24.548 93.9871 24.34C94.4991 24.116 94.9391 23.796 95.3071 23.38L96.7231 24.82C96.1951 25.428 95.5471 25.9 94.7791 26.236C94.0271 26.572 93.2111 26.74 92.3311 26.74ZM106.161 26.5L100.833 20.668L106.113 15.1H108.729L102.849 21.244L102.945 19.996L108.945 26.5H106.161ZM98.8652 26.5V9.364H101.025V26.5H98.8652ZM110.443 26.5V15.1H112.603V26.5H110.443ZM118.147 26.5V19.612C118.147 18.764 117.883 18.1 117.355 17.62C116.843 17.124 116.195 16.876 115.411 16.876C114.883 16.876 114.411 16.988 113.995 17.212C113.579 17.436 113.243 17.748 112.987 18.148C112.731 18.548 112.603 19.028 112.603 19.588L111.715 19.156C111.715 18.292 111.899 17.54 112.267 16.9C112.651 16.26 113.171 15.764 113.827 15.412C114.483 15.044 115.219 14.86 116.035 14.86C116.835 14.86 117.555 15.036 118.195 15.388C118.851 15.74 119.363 16.236 119.731 16.876C120.115 17.516 120.307 18.276 120.307 19.156V26.5H118.147ZM125.851 26.5V19.612C125.851 18.764 125.587 18.1 125.059 17.62C124.547 17.124 123.907 16.876 123.139 16.876C122.611 16.876 122.131 16.988 121.699 17.212C121.283 17.436 120.947 17.748 120.691 18.148C120.435 18.548 120.307 19.028 120.307 19.588L119.083 19.156C119.131 18.276 119.363 17.524 119.779 16.9C120.211 16.26 120.763 15.764 121.435 15.412C122.107 15.044 122.843 14.86 123.643 14.86C124.475 14.86 125.219 15.036 125.875 15.388C126.531 15.74 127.051 16.236 127.435 16.876C127.835 17.516 128.035 18.284 128.035 19.18V26.5H125.851ZM135.823 26.74C134.783 26.74 133.839 26.484 132.991 25.972C132.143 25.444 131.471 24.732 130.975 23.836C130.495 22.94 130.255 21.932 130.255 20.812C130.255 19.692 130.495 18.684 130.975 17.788C131.471 16.892 132.135 16.18 132.967 15.652C133.815 15.124 134.767 14.86 135.823 14.86C136.687 14.86 137.455 15.044 138.127 15.412C138.815 15.764 139.367 16.26 139.783 16.9C140.199 17.524 140.431 18.252 140.479 19.084V22.516C140.431 23.332 140.199 24.06 139.783 24.7C139.383 25.34 138.839 25.844 138.151 26.212C137.479 26.564 136.703 26.74 135.823 26.74ZM136.183 24.7C137.255 24.7 138.119 24.34 138.775 23.62C139.431 22.884 139.759 21.948 139.759 20.812C139.759 20.028 139.607 19.348 139.303 18.772C139.015 18.18 138.599 17.724 138.055 17.404C137.511 17.068 136.879 16.9 136.159 16.9C135.439 16.9 134.799 17.068 134.239 17.404C133.695 17.74 133.263 18.204 132.943 18.796C132.639 19.372 132.487 20.036 132.487 20.788C132.487 21.556 132.639 22.236 132.943 22.828C133.263 23.404 133.703 23.86 134.263 24.196C134.823 24.532 135.463 24.7 136.183 24.7ZM139.615 26.5V23.428L140.023 20.644L139.615 17.884V15.1H141.799V26.5H139.615ZM146.649 26.5V10.324H148.809V26.5H146.649ZM143.841 17.068V15.1H151.617V17.068H143.841ZM158.661 26.74C157.525 26.74 156.501 26.484 155.589 25.972C154.677 25.444 153.957 24.732 153.429 23.836C152.901 22.94 152.637 21.924 152.637 20.788C152.637 19.668 152.893 18.66 153.405 17.764C153.933 16.868 154.637 16.164 155.517 15.652C156.413 15.124 157.413 14.86 158.517 14.86C159.573 14.86 160.501 15.1 161.301 15.58C162.117 16.06 162.749 16.724 163.197 17.572C163.661 18.42 163.893 19.38 163.893 20.452C163.893 20.612 163.885 20.788 163.869 20.98C163.853 21.156 163.821 21.364 163.773 21.604H154.149V19.804H162.621L161.829 20.5C161.829 19.732 161.693 19.084 161.421 18.556C161.149 18.012 160.765 17.596 160.269 17.308C159.773 17.004 159.173 16.852 158.469 16.852C157.733 16.852 157.085 17.012 156.525 17.332C155.965 17.652 155.533 18.1 155.229 18.676C154.925 19.252 154.773 19.932 154.773 20.716C154.773 21.516 154.933 22.22 155.253 22.828C155.573 23.42 156.029 23.884 156.621 24.22C157.213 24.54 157.893 24.7 158.661 24.7C159.301 24.7 159.885 24.588 160.413 24.364C160.957 24.14 161.421 23.804 161.805 23.356L163.197 24.772C162.653 25.412 161.981 25.9 161.181 26.236C160.397 26.572 159.557 26.74 158.661 26.74Z" fill="#F5F5F5"/>
<defs>
<filter id="filter0_d_133_186" x="0.672763" y="0.94546" width="36.6545" height="36.6547" filterUnits="userSpaceOnUse" color-interpolation-filters="sRGB">
<feFlood flood-opacity="0" result="BackgroundImageFix"/>
<feColorMatrix in="SourceAlpha" type="matrix" values="0 0 0 0 0 0 0 0 0 0 0 0 0 0 0 0 0 0 127 0" result="hardAlpha"/>
<feOffset dy="1.27273"/>
<feGaussianBlur stdDeviation="2.54545"/>
<feComposite in2="hardAlpha" operator="out"/>
<feColorMatrix type="matrix" values="0 0 0 0 0 0 0 0 0 0 0 0 0 0 0 0 0 0 0.15 0"/>
<feBlend mode="normal" in2="BackgroundImageFix" result="effect1_dropShadow_133_186"/>
<feBlend mode="normal" in="SourceGraphic" in2="effect1_dropShadow_133_186" result="shape"/>
</filter>
</defs>
</svg>
