<svg width="48" height="52" viewBox="0 0 48 52" fill="none" xmlns="http://www.w3.org/2000/svg">
<g clip-path="url(#clip0_1189_4118)">
<path d="M12.7927 19.7894C12.614 19.5819 12.3577 19.464 12.0798 19.464C11.8019 19.464 11.5457 19.5819 11.367 19.7894L10.933 19.3588C9.954 16.475 7.63083 14.17 4.71459 13.1889L4.14902 12.6278C4.30514 12.4573 4.39056 12.2371 4.39056 12.0043C4.39056 11.7714 4.30514 11.5512 4.14902 11.3808L4.71558 10.8186C7.5945 9.84048 9.9 7.55394 10.8858 4.69747L11.4504 4.13729C11.6232 4.29219 11.8451 4.37695 12.0788 4.37695C12.3125 4.37695 12.5344 4.29219 12.7073 4.13729L13.2738 4.69942C14.2596 7.55686 16.5661 9.84535 19.446 10.8235L20.0086 11.3817C19.8525 11.5522 19.7671 11.7724 19.7671 12.0052C19.7671 12.2381 19.8525 12.4573 20.0077 12.6278L19.4441 13.188C16.5337 14.1651 14.2115 16.4692 13.2267 19.3568L12.7907 19.7894H12.7927Z" fill="white"/>
<path d="M11.4534 4.20256C11.6301 4.34675 11.8491 4.42469 12.0798 4.42469C12.3106 4.42469 12.5295 4.34675 12.7063 4.20256L13.2326 4.72475C14.2243 7.58804 16.5357 9.88042 19.4215 10.8654L19.9438 11.3837C19.7985 11.5581 19.72 11.7753 19.72 12.0052C19.72 12.2352 19.7985 12.4505 19.9429 12.6258L19.4195 13.1461C16.5043 14.1291 14.1762 16.438 13.1864 19.3305L12.7946 19.7193C12.6091 19.5254 12.3538 19.4153 12.0798 19.4153C11.8059 19.4153 11.5506 19.5244 11.365 19.7193L10.9752 19.3325C10.4842 17.8916 9.64765 16.5627 8.55578 15.4901C7.48453 14.4379 6.16584 13.6283 4.74111 13.147L4.21579 12.6258C4.36112 12.4514 4.43966 12.2342 4.43966 12.0043C4.43966 11.7743 4.36112 11.5571 4.21579 11.3827L4.74209 10.8605C7.62691 9.87653 9.93634 7.58512 10.929 4.72281L11.4534 4.20256ZM12.7092 4.06812C12.5482 4.22789 12.3253 4.32726 12.0798 4.32726C11.8343 4.32726 11.6114 4.22789 11.4504 4.06812L10.8436 4.6702C9.85877 7.53348 7.57388 9.79956 4.68906 10.7757L4.08029 11.3798C4.24231 11.5396 4.34147 11.7607 4.34147 12.0043C4.34147 12.2478 4.24231 12.469 4.08029 12.6287L4.68808 13.2318C7.54835 14.1905 9.89018 16.4293 10.8898 19.3851L11.3709 19.8625C11.5329 19.6501 11.7902 19.5127 12.0798 19.5127C12.3695 19.5127 12.6267 19.6501 12.7887 19.8625L13.2718 19.3831C14.2537 16.4916 16.5592 14.2051 19.4725 13.2308L20.0784 12.6287C19.9173 12.469 19.8182 12.2488 19.8182 12.0052C19.8182 11.7617 19.9173 11.5405 20.0793 11.3808L19.4745 10.7806C16.5877 9.80346 14.3028 7.5364 13.318 4.67214L12.7092 4.06812Z" fill="white"/>
<path d="M11.1686 20.1655C11.1185 19.9628 11.0616 19.7612 10.9997 19.5634L11.3061 19.8674C11.2423 19.958 11.1961 20.0583 11.1686 20.1655Z" fill="white"/>
<path d="M11.1038 19.7349L11.2432 19.8732C11.2177 19.9122 11.1951 19.9541 11.1765 19.996C11.1529 19.9083 11.1293 19.8216 11.1038 19.7349ZM10.8898 19.3851C11.0125 19.7465 11.1146 20.1177 11.1951 20.4996C11.1912 20.4655 11.1892 20.4314 11.1892 20.3964C11.1892 20.1957 11.256 20.0106 11.3709 19.8625L10.8898 19.3851Z" fill="white"/>
<path d="M12.0798 4.27859C11.8717 4.27859 11.6753 4.20357 11.5211 4.06717L12.0798 3.51283L12.6385 4.06717C12.4844 4.20357 12.287 4.27859 12.0798 4.27859Z" fill="white"/>
<path d="M12.0798 3.58103L12.5659 4.06328C12.4274 4.17044 12.2575 4.2289 12.0798 4.2289C11.9021 4.2289 11.7322 4.17044 11.5938 4.06328L12.0798 3.58103ZM12.0798 3.44366L11.4504 4.06812C11.6114 4.22789 11.8343 4.32726 12.0798 4.32726C12.3253 4.32726 12.5482 4.22789 12.7092 4.06812L12.0798 3.44366Z" fill="white"/>
<path d="M10.9546 4.49096C11.039 4.22791 11.1117 3.96 11.1735 3.69208C11.2118 3.83042 11.2825 3.95902 11.3817 4.06716L10.9546 4.49096Z" fill="white"/>
<path d="M11.1843 3.86062C11.2187 3.93369 11.2629 4.00189 11.3149 4.06521L11.0596 4.31851C11.1048 4.16653 11.146 4.01455 11.1843 3.86062ZM11.1941 3.35694C11.1077 3.80607 10.9899 4.24445 10.8436 4.6702L11.4504 4.06812C11.2884 3.90834 11.1892 3.68818 11.1892 3.44365C11.1892 3.41442 11.1902 3.38519 11.1941 3.35694Z" fill="white"/>
<path d="M12.7779 4.06716C12.8781 3.95805 12.9488 3.82847 12.9871 3.68721C13.049 3.95902 13.1226 4.22791 13.207 4.49193L12.7779 4.06716Z" fill="white"/>
<path d="M12.9773 3.8577C13.0156 4.01261 13.0568 4.16751 13.1029 4.32047L12.8457 4.06521C12.8987 4.00189 12.9429 3.93174 12.9773 3.8577ZM12.9635 3.33259C12.9684 3.36863 12.9704 3.40566 12.9704 3.44365C12.9704 3.68818 12.8712 3.90834 12.7092 4.06812L13.318 4.67214C13.1687 4.23861 13.0499 3.79145 12.9635 3.33259Z" fill="white"/>
<path d="M12.0798 3.37446L11.4514 3.99797C11.3139 3.84599 11.2383 3.65017 11.2383 3.44363C11.2383 3.41635 11.2383 3.39005 11.2423 3.36374V3.35498C11.254 3.30821 11.2619 3.26047 11.2707 3.21371C11.3709 2.85909 11.7047 2.60968 12.0798 2.60968C12.4549 2.60968 12.7946 2.86396 12.8928 3.22735V3.24196L12.8987 3.24781C12.9056 3.27801 12.9115 3.30821 12.9154 3.33939C12.9193 3.37154 12.9223 3.40564 12.9223 3.4446C12.9223 3.65212 12.8467 3.84697 12.7092 3.99895L12.0798 3.37446Z" fill="white"/>
<path d="M12.0798 2.65742C12.4372 2.65742 12.7505 2.89416 12.8437 3.23417V3.26242L12.8536 3.27119C12.8585 3.29555 12.8634 3.3199 12.8663 3.34523C12.8702 3.37446 12.8722 3.40661 12.8722 3.44363C12.8722 3.62094 12.8133 3.78949 12.7053 3.92588L12.0798 3.30529L11.4543 3.92588C11.3463 3.78851 11.2874 3.62094 11.2874 3.44363C11.2874 3.41246 11.2884 3.39005 11.2914 3.37056V3.36374C11.3012 3.31796 11.309 3.27314 11.3169 3.22735C11.4141 2.89221 11.7263 2.65937 12.0779 2.65937M12.0798 2.56C11.6713 2.56 11.3277 2.83279 11.2226 3.20397C11.2138 3.25366 11.2049 3.30334 11.1941 3.35303C11.1941 3.354 11.1932 3.35597 11.1941 3.35694C11.1902 3.38519 11.1892 3.41442 11.1892 3.44365C11.1892 3.68818 11.2884 3.90834 11.4504 4.06812L12.0798 3.44366L12.7092 4.06812C12.8712 3.90834 12.9704 3.68818 12.9704 3.44365C12.9704 3.40566 12.9684 3.36863 12.9635 3.33259C12.9586 3.29459 12.9517 3.25853 12.9429 3.22248C12.9429 3.22248 12.9426 3.22183 12.9419 3.22053C12.8428 2.84058 12.4942 2.56 12.0798 2.56Z" fill="white"/>
<path d="M11.2226 3.20397C11.2089 3.25171 11.1991 3.30237 11.1941 3.35303C11.2049 3.30334 11.2138 3.25366 11.2226 3.20397Z" fill="white"/>
<path d="M3.5206 12.0043L4.07931 11.45C4.21678 11.6019 4.29237 11.7978 4.29237 12.0043C4.29237 12.2108 4.21678 12.4067 4.07931 12.5586L3.5206 12.0043Z" fill="white"/>
<path d="M4.07636 11.522C4.18437 11.6594 4.24328 11.827 4.24328 12.0043C4.24328 12.1816 4.18437 12.3501 4.07636 12.4865L3.59033 12.0043L4.07636 11.522ZM4.08029 11.3798L3.45089 12.0043L4.08029 12.6287C4.24231 12.469 4.34147 12.2478 4.34147 12.0043C4.34147 11.7607 4.24231 11.5396 4.08029 11.3798Z" fill="white"/>
<path d="M4.07931 11.3116C3.96934 11.2122 3.83874 11.1421 3.69833 11.1041C3.9713 11.0427 4.2423 10.9696 4.5084 10.8858L4.07931 11.3116Z" fill="white"/>
<path d="M4.33362 10.9901L4.07636 11.2453C4.01254 11.1927 3.94282 11.1489 3.8682 11.1148C4.02432 11.0768 4.17946 11.0359 4.33362 10.9901ZM4.68906 10.7757C4.25507 10.9229 3.80732 11.0408 3.34779 11.1265C3.38215 11.1226 3.41653 11.1206 3.45089 11.1206C3.69637 11.1206 3.91926 11.219 4.08029 11.3798L4.68906 10.7757Z" fill="white"/>
<path d="M4.5084 13.1217C4.24034 13.0379 3.96835 12.9649 3.69538 12.9045C3.83776 12.8665 3.96835 12.7963 4.07931 12.696L4.5084 13.1217Z" fill="white"/>
<path d="M4.07734 12.7632L4.3346 13.0185C4.17946 12.9736 4.02432 12.9317 3.86722 12.8947C3.94184 12.8606 4.01254 12.8158 4.07734 12.7632ZM4.08029 12.6287C3.91926 12.7895 3.69637 12.8879 3.45089 12.8879C3.40474 12.8879 3.35957 12.884 3.31539 12.8782C3.78375 12.9629 4.2423 13.0818 4.68808 13.2318L4.08029 12.6287Z" fill="white"/>
<path d="M3.45089 12.8392C3.41162 12.8392 3.36939 12.8363 3.32226 12.8295C3.30753 12.8265 3.29084 12.8246 3.27513 12.8207C2.88924 12.7379 2.61038 12.3949 2.61038 12.0043C2.61038 11.6136 2.86764 11.2941 3.23585 11.1966C3.27414 11.1908 3.31637 11.183 3.35859 11.1742C3.38706 11.1713 3.41947 11.1694 3.45187 11.1694C3.66102 11.1694 3.85739 11.2444 4.01057 11.3808L3.38215 12.0043L4.01057 12.6278C3.85739 12.7642 3.65905 12.8392 3.45089 12.8392Z" fill="white"/>
<path d="M3.45089 11.2181C3.6296 11.2181 3.79946 11.2765 3.93693 11.3837L3.31146 12.0043L3.93693 12.6249C3.79848 12.732 3.6296 12.7905 3.45089 12.7905C3.41358 12.7905 3.37332 12.7876 3.3311 12.7817C3.31539 12.7788 3.30065 12.7768 3.28396 12.773C2.92164 12.696 2.65849 12.3725 2.65849 12.0043C2.65849 11.636 2.89808 11.3379 3.24273 11.2453C3.28299 11.2385 3.32226 11.2317 3.3635 11.2229C3.39296 11.22 3.42242 11.2181 3.45089 11.2181ZM3.45089 11.1206C3.41653 11.1206 3.38215 11.1226 3.34779 11.1265C3.30557 11.1353 3.26434 11.1431 3.22211 11.1499C2.84114 11.2502 2.5603 11.5951 2.5603 12.0043C2.5603 12.4135 2.86175 12.7827 3.26335 12.8684C3.28004 12.8723 3.29771 12.8752 3.31539 12.8782C3.35957 12.884 3.40474 12.8879 3.45089 12.8879C3.69637 12.8879 3.91926 12.7895 4.08029 12.6287L3.45089 12.0043L4.08029 11.3798C3.91926 11.219 3.69637 11.1206 3.45089 11.1206Z" fill="white"/>
<path d="M11.4367 19.8586C11.5967 19.6686 11.8285 19.5615 12.0798 19.5615C12.3312 19.5615 12.5629 19.6696 12.723 19.8586L12.0798 20.4967L11.4367 19.8586Z" fill="white"/>
<path d="M12.0798 19.6102C12.3007 19.6102 12.5069 19.6988 12.6552 19.8567L12.0798 20.4276L11.5044 19.8567C11.6537 19.6988 11.8589 19.6102 12.0798 19.6102ZM12.0798 19.5127C11.7902 19.5127 11.5329 19.6501 11.3709 19.8625L12.0798 20.5659L12.7887 19.8625C12.6267 19.6501 12.3695 19.5127 12.0798 19.5127Z" fill="white"/>
<path d="M12.991 20.1664C12.9635 20.0593 12.9174 19.958 12.8536 19.8674L13.1619 19.5614C13.099 19.7592 13.0411 19.9619 12.991 20.1664Z" fill="white"/>
<path d="M13.0578 19.7339C13.0323 19.8216 13.0077 19.9093 12.9841 19.9979C12.9645 19.955 12.9419 19.9141 12.9164 19.8742L13.0578 19.7339ZM13.2718 19.3831L12.7887 19.8625C12.9036 20.0106 12.9704 20.1957 12.9704 20.3964C12.9704 20.4363 12.9675 20.4753 12.9625 20.5143C13.0431 20.1285 13.1462 19.7504 13.2718 19.3831Z" fill="white"/>
<path d="M12.0798 21.2313C11.7047 21.2313 11.3719 20.9819 11.2698 20.6234C11.2629 20.5824 11.2531 20.5357 11.2432 20.4889C11.2403 20.4616 11.2383 20.4285 11.2383 20.3954C11.2383 20.2288 11.2864 20.0719 11.3768 19.9365L12.0798 20.6341L12.7829 19.9365C12.8742 20.0719 12.9213 20.2288 12.9213 20.3954C12.9213 20.4314 12.9193 20.4675 12.9134 20.5074C12.9066 20.5406 12.8977 20.5785 12.8918 20.6165C12.7946 20.976 12.4608 21.2313 12.0798 21.2313Z" fill="white"/>
<path d="M11.3866 20.0154L12.0808 20.7042L12.775 20.0154C12.8398 20.1304 12.8742 20.26 12.8742 20.3964C12.8742 20.4285 12.8722 20.4616 12.8673 20.4977C12.8604 20.5308 12.8526 20.5669 12.8467 20.6039C12.7524 20.9449 12.4382 21.1826 12.0818 21.1826C11.7254 21.1826 11.418 20.9497 11.3208 20.6156C11.313 20.5717 11.3041 20.5279 11.2943 20.484C11.2914 20.4548 11.2894 20.4266 11.2894 20.3964C11.2894 20.26 11.3238 20.1304 11.3886 20.0154M12.7887 19.8625L12.0798 20.5659L11.3709 19.8625C11.256 20.0106 11.1892 20.1957 11.1892 20.3964C11.1892 20.4314 11.1912 20.4655 11.1951 20.4996C11.2049 20.5454 11.2148 20.5912 11.2226 20.637C11.3287 21.0082 11.6723 21.28 12.0798 21.28C12.4873 21.28 12.8388 21.0023 12.9409 20.6243C12.9468 20.5873 12.9547 20.5503 12.9625 20.5143C12.9675 20.4753 12.9704 20.4363 12.9704 20.3964C12.9704 20.1957 12.9036 20.0106 12.7887 19.8625Z" fill="white"/>
<path d="M11.1951 20.4996C11.201 20.5464 11.2099 20.5922 11.2226 20.637C11.2148 20.5912 11.2049 20.5454 11.1951 20.4996Z" fill="white"/>
<path d="M20.0793 12.5586C19.9419 12.4057 19.8672 12.2118 19.8672 12.0052C19.8672 11.7987 19.9429 11.6029 20.0803 11.4509L20.638 12.0043L20.0793 12.5586Z" fill="white"/>
<path d="M20.0833 11.523L20.5683 12.0043L20.0823 12.4865C19.9743 12.3492 19.9163 12.1816 19.9163 12.0052C19.9163 11.8289 19.9753 11.6594 20.0833 11.523ZM20.0793 11.3808C19.9173 11.5405 19.8182 11.7617 19.8182 12.0052C19.8182 12.2488 19.9173 12.469 20.0784 12.6287L20.7078 12.0043L20.0793 11.3808Z" fill="white"/>
<path d="M19.6552 10.8907C19.9164 10.9736 20.1844 11.0457 20.4564 11.1061C20.3179 11.144 20.1893 11.2142 20.0803 11.3116L19.6552 10.8907Z" fill="white"/>
<path d="M19.8299 10.995C19.9811 11.0388 20.1333 11.0797 20.2875 11.1177C20.2148 11.1518 20.1461 11.1947 20.0833 11.2463L19.8299 10.995ZM19.4745 10.7806L20.0793 11.3808C20.2404 11.221 20.4633 11.1216 20.7087 11.1216C20.7343 11.1216 20.7598 11.1226 20.7853 11.1255C20.3366 11.0398 19.8987 10.9248 19.4745 10.7806Z" fill="white"/>
<path d="M20.0793 12.697C20.1903 12.7973 20.3219 12.8684 20.4643 12.9054C20.1903 12.9658 19.9183 13.0379 19.6522 13.1208L20.0793 12.697Z" fill="white"/>
<path d="M20.0813 12.7632C20.1461 12.8158 20.2168 12.8606 20.2914 12.8947C20.1343 12.9317 19.9792 12.9736 19.825 13.0175L20.0813 12.7632ZM20.0784 12.6287L19.4725 13.2308C19.9164 13.0818 20.3749 12.9639 20.8442 12.8791C20.8001 12.885 20.7549 12.8889 20.7087 12.8889C20.4623 12.8889 20.2394 12.7895 20.0784 12.6287Z" fill="white"/>
<path d="M20.7087 12.8402C20.4996 12.8402 20.3032 12.7652 20.1491 12.6278L20.7775 12.0043L20.15 11.3818C20.3042 11.2454 20.5016 11.1704 20.7087 11.1704C20.7323 11.1704 20.7559 11.1704 20.7794 11.1743C20.8325 11.185 20.8894 11.1957 20.9464 11.2045C21.2998 11.3048 21.5512 11.6351 21.5512 12.0062C21.5512 12.3998 21.2694 12.7428 20.8825 12.8236L20.8364 12.8324C20.7912 12.8383 20.748 12.8402 20.7087 12.8402Z" fill="white"/>
<path d="M20.7087 11.2191C20.7323 11.2191 20.7519 11.2191 20.7706 11.222C20.8246 11.2327 20.8786 11.2424 20.9326 11.2512C21.2684 11.3486 21.5021 11.6575 21.5021 12.0053C21.5021 12.3755 21.237 12.6989 20.8747 12.7749C20.859 12.7778 20.8442 12.7808 20.8315 12.7827C20.7863 12.7886 20.7461 12.7915 20.7087 12.7915C20.53 12.7915 20.3602 12.733 20.2207 12.6249L20.8462 12.0043L20.2217 11.3847C20.3602 11.2775 20.531 11.2191 20.7087 11.2191ZM20.7087 11.1216C20.4633 11.1216 20.2404 11.221 20.0793 11.3808L20.7078 12.0043L20.0784 12.6287C20.2394 12.7895 20.4623 12.8889 20.7087 12.8889C20.7549 12.8889 20.8001 12.885 20.8442 12.8791C20.8609 12.8762 20.8766 12.8733 20.8924 12.8704C21.2959 12.7866 21.6003 12.431 21.6003 12.0053C21.6003 11.6019 21.3273 11.261 20.9542 11.1557C20.8973 11.147 20.8413 11.1363 20.7853 11.1255C20.7598 11.1226 20.7343 11.1216 20.7087 11.1216Z" fill="white"/>
<path d="M20.9542 11.1557C20.8973 11.147 20.8413 11.1363 20.7853 11.1255C20.8433 11.1294 20.8992 11.1402 20.9542 11.1557Z" fill="white"/>
<path d="M47.9999 12.5599H24.1532C24.1062 12.5599 24.0834 12.4942 24.1153 12.4596C24.2344 12.3303 24.3076 12.1549 24.3076 11.9617C24.3076 11.7682 24.2341 11.5907 24.1147 11.4604C24.0829 11.4258 24.1058 11.3599 24.1528 11.3599H47.9999V12.5599Z" fill="white"/>
<path d="M11.3599 48L11.3599 24.1533C11.3599 24.1064 11.4256 24.0836 11.4601 24.1154C11.5894 24.2345 11.7648 24.3077 11.958 24.3077C12.1515 24.3077 12.3291 24.2343 12.4593 24.1148C12.4939 24.0831 12.5599 24.106 12.5599 24.153L12.5599 48H11.3599Z" fill="white"/>
<path d="M38.0089 25.4278L38.48 26.6374C38.022 26.9018 37.3938 27.2455 36.5955 27.6685C35.7973 28.0783 35.0644 28.4419 34.397 28.7592V26.2209C34.855 25.9962 35.5028 25.6525 36.3403 25.1898C37.191 24.7271 37.9108 24.3305 38.4997 24H40.4038V39.017H38.0089V25.4278Z" fill="white"/>
<path d="M26.5662 39.04C25.2712 39.04 24.2298 38.8064 23.4421 38.3391C22.6677 37.8584 22.0535 37.2176 21.5996 36.4165L23.5222 35.1548C23.8159 35.769 24.2164 36.2296 24.7238 36.5367C25.2445 36.8437 25.8586 36.9973 26.5662 36.9973C27.434 36.9973 28.1216 36.8037 28.6289 36.4165C29.1363 36.016 29.39 35.4219 29.39 34.6341C29.39 33.8197 29.1096 33.2523 28.5488 32.9319C28.0014 32.5981 27.2071 32.4312 26.1657 32.4312H24.884V30.5287H25.9854C26.5195 30.5287 27.0135 30.4152 27.4674 30.1882C27.9347 29.9613 28.3018 29.6542 28.5689 29.267C28.8492 28.8665 28.9894 28.4192 28.9894 27.9252C28.9894 27.2977 28.7758 26.8238 28.3486 26.5033C27.9213 26.1696 27.3339 26.0027 26.5862 26.0027C25.6517 26.0027 24.9841 26.223 24.5836 26.6635C24.183 27.0908 24.0028 27.6649 24.0429 28.3858L21.7598 28.7263C21.6931 27.6849 21.8733 26.8104 22.3005 26.1028C22.7278 25.3952 23.3286 24.8678 24.1029 24.5207C24.8773 24.1736 25.7518 24 26.7264 24C27.6476 24 28.4621 24.1535 29.1697 24.4606C29.8906 24.7543 30.4514 25.1749 30.8519 25.7223C31.2524 26.2697 31.4527 26.9105 31.4527 27.6448C31.4527 28.5794 31.1256 29.3938 30.4714 30.0881C29.8305 30.7824 28.9694 31.2229 27.888 31.4099L27.6677 30.8892C28.6156 30.9025 29.4033 31.0694 30.0308 31.3898C30.6583 31.6969 31.1189 32.1175 31.4126 32.6515C31.7197 33.1855 31.8733 33.7997 31.8733 34.494C31.8733 35.255 31.693 35.9826 31.3325 36.6769C30.9854 37.3578 30.418 37.9252 29.6303 38.3791C28.8426 38.8197 27.8212 39.04 26.5662 39.04Z" fill="white"/>
</g>
<defs>
<clipPath id="clip0_1189_4118">
<rect width="48" height="48" fill="white"/>
</clipPath>
</defs>
</svg>
