<svg width="171" height="48" viewBox="0 0 171 48" fill="none" xmlns="http://www.w3.org/2000/svg">
<path d="M155.956 29.2181L155.948 36.2537C155.948 36.6273 156.031 36.8985 156.199 37.0672C156.378 37.2239 156.677 37.3023 157.095 37.3023H158.349V39.0197H156.736C155.816 39.0197 155.112 38.8028 154.622 38.3689C154.132 37.935 153.887 37.23 153.887 36.2537L153.887 29.2181H152.674L152.69 27.6362H153.904L153.947 24.0205H156.008L155.965 27.6362H158.366L158.357 29.2181H155.956Z" fill="#151514"/>
<path d="M140.091 33.2707C140.091 32.1622 140.319 31.1805 140.774 30.3257C141.244 29.4709 141.874 28.8098 142.665 28.3423C143.47 27.8615 144.355 27.6211 145.32 27.6211C146.192 27.6211 146.95 27.7947 147.593 28.142C148.25 28.4759 148.773 28.8966 149.162 29.4041V27.6211H151.475V38.8402H149.162V37.1974C148.773 37.7183 148.244 38.1524 147.573 38.4996C146.903 38.8469 146.138 39.0205 145.28 39.0205C144.328 39.0205 143.456 38.7801 142.665 38.2993C141.874 37.8051 141.244 37.1239 140.774 36.2558C140.319 35.3743 140.091 34.3793 140.091 33.2707ZM149.162 33.3108C149.162 32.5495 149.001 31.8884 148.679 31.3274C148.371 30.7665 147.962 30.3391 147.452 30.0452C146.943 29.7514 146.393 29.6045 145.803 29.6045C145.213 29.6045 144.663 29.7514 144.154 30.0452C143.644 30.3257 143.228 30.7464 142.907 31.3074C142.598 31.855 142.444 32.5094 142.444 33.2707C142.444 34.032 142.598 34.6998 142.907 35.2741C143.228 35.8484 143.644 36.2892 144.154 36.5964C144.677 36.8902 145.226 37.0371 145.803 37.0371C146.393 37.0371 146.943 36.8902 147.452 36.5964C147.962 36.3025 148.371 35.8752 148.679 35.3142C149.001 34.7399 149.162 34.0721 149.162 33.3108Z" fill="#151514"/>
<path d="M134.251 27.6211C135.137 27.6211 135.928 27.8043 136.623 28.1707C137.331 28.5371 137.883 29.0799 138.278 29.7992C138.687 30.5184 138.892 31.387 138.892 32.4048V39.0205H136.582V32.7508C136.582 31.7466 136.33 30.9798 135.825 30.4506C135.321 29.9078 134.633 29.6363 133.761 29.6363C132.888 29.6363 132.193 29.9078 131.676 30.4506C131.171 30.9798 130.919 31.7466 130.919 32.7508V39.0205H128.609V32.7508C128.609 31.7466 128.357 30.9798 127.853 30.4506C127.349 29.9078 126.66 29.6363 125.788 29.6363C124.916 29.6363 124.221 29.9078 123.703 30.4506C123.199 30.9798 122.947 31.7466 122.947 32.7508V39.0205H120.616V27.6211H122.947V29.0867C123.328 28.6253 123.812 28.2657 124.398 28.0079C124.984 27.75 125.611 27.6211 126.279 27.6211C127.178 27.6211 127.982 27.8111 128.691 28.1911C129.4 28.571 129.945 29.1207 130.326 29.8399C130.667 29.1614 131.199 28.6253 131.921 28.2318C132.643 27.8247 133.42 27.6211 134.251 27.6211Z" fill="#151514"/>
<path d="M113.464 33.8359L118.22 39.0197H115.336L111.516 34.5522V39.0197H109.382V24.0205H111.516V33.1761L115.261 27.6203H118.22L113.464 33.8359Z" fill="#151514"/>
<path d="M97.2476 33.3108C97.2476 32.1755 97.4786 31.1805 97.9406 30.3257C98.4162 29.4576 99.0685 28.7898 99.8975 28.3223C100.726 27.8548 101.678 27.6211 102.751 27.6211C104.11 27.6211 105.231 27.9416 106.115 28.5827C107.011 29.2105 108.387 30.9959 108.158 32.4208H105.65C105.65 30.9209 104.892 30.3123 104.443 30.0052C103.995 29.698 103.431 29.5444 102.751 29.5444C101.8 29.5444 101.039 29.8783 100.468 30.5461C99.9111 31.2005 99.6325 32.1221 99.6325 33.3108C99.6325 34.4995 99.9111 35.4277 100.468 36.0955C101.039 36.7633 101.8 37.0972 102.751 37.0972C104.097 37.0972 104.919 36.7327 105.354 35.5707H107.861C107.535 36.6926 106.991 37.371 106.094 38.0388C105.197 38.6933 104.083 39.0205 102.751 39.0205C101.678 39.0205 100.726 38.7868 99.8975 38.3193C99.0685 37.8385 98.4162 37.1707 97.9406 36.3159C97.4786 35.4478 97.2476 34.4461 97.2476 33.3108Z" fill="#151514"/>
<path d="M96.0501 33.0503C96.0501 33.4644 96.0434 34.0387 95.9897 34.3726H87.5113C87.5784 35.2541 87.8872 35.7616 88.4779 36.2959C89.0687 36.8301 89.7937 37.0972 90.6529 37.0972C91.8881 37.0972 92.7608 36.583 93.271 35.5546H95.748C95.4124 36.5697 94.8015 37.4044 93.9154 38.0589C93.0427 38.7 91.9552 39.0205 90.6529 39.0205C89.5923 39.0205 88.639 38.7868 87.7932 38.3193C86.9608 37.8385 86.3029 37.1707 85.8196 36.3159C85.3497 35.4478 85.1147 34.4461 85.1147 33.3108C85.1147 32.1755 85.343 31.1805 85.7995 30.3257C86.2694 29.4576 86.9205 28.7898 87.7529 28.3223C88.5988 27.8548 89.5654 27.6211 90.6529 27.6211C91.7001 27.6211 92.6332 27.8481 93.4522 28.3023C94.2712 28.7564 94.9089 29.3975 95.3654 30.2255C95.8219 31.0403 96.0501 31.9819 96.0501 33.0503ZM93.6536 32.4208C93.6402 31.5794 93.3381 30.8132 92.7474 30.3057C92.1566 29.7981 91.4249 29.5444 90.5522 29.5444C89.7601 29.5444 89.0821 29.7981 88.5182 30.3057C87.9543 30.7998 87.6187 31.5661 87.5113 32.4208H93.6536Z" fill="#151514"/>
<path d="M170.5 33.0503C170.5 33.4644 170.493 34.0387 170.439 34.3726H161.961C162.028 35.2541 162.337 35.7616 162.928 36.2959C163.518 36.8301 164.243 37.0972 165.103 37.0972C166.338 37.0972 167.21 36.583 167.721 35.5546H170.198C169.862 36.5697 169.251 37.4044 168.365 38.0589C167.492 38.7 166.405 39.0205 165.103 39.0205C164.042 39.0205 163.089 38.7868 162.243 38.3193C161.411 37.8385 160.753 37.1707 160.269 36.3159C159.799 35.4478 159.564 34.4461 159.564 33.3108C159.564 32.1755 159.793 31.1805 160.249 30.3257C160.719 29.4576 161.37 28.7898 162.203 28.3223C163.048 27.8548 164.015 27.6211 165.103 27.6211C166.15 27.6211 167.083 27.8481 167.902 28.3023C168.721 28.7564 169.359 29.3975 169.815 30.2255C170.272 31.0403 170.5 31.9819 170.5 33.0503ZM168.103 32.4208C168.09 31.5794 167.788 30.8132 167.197 30.3057C166.606 29.7981 165.875 29.5444 165.002 29.5444C164.21 29.5444 163.532 29.7981 162.968 30.3057C162.404 30.7998 162.068 31.5661 161.961 32.4208H168.103Z" fill="#151514"/>
<path d="M79.4892 27.669C80.338 27.669 81.0926 27.8514 81.7528 28.2162C82.4265 28.5811 82.952 29.1216 83.3293 29.8378C83.72 30.554 83.9154 31.4188 83.9154 32.4322V39.0197H81.6315V32.7768C81.6315 31.7769 81.3823 31.0134 80.8837 30.4864C80.3852 29.9459 79.7047 29.6756 78.8424 29.6756C77.9801 29.6756 77.2929 29.9459 76.7809 30.4864C76.2823 31.0134 76.0331 31.7769 76.0331 32.7768V39.0197H73.729V24.0205H76.0331V29.1486C76.4238 28.6757 76.9156 28.3108 77.5085 28.0541C78.1148 27.7973 78.775 27.669 79.4892 27.669Z" fill="#151514"/>
<path d="M58 31.5201C58 30.0836 58.3358 28.7949 59.0073 27.6541C59.6931 26.5133 60.6146 25.6261 61.7719 24.9923C62.9435 24.3444 64.2223 24.0205 65.6082 24.0205C67.1941 24.0205 68.6015 24.4078 69.8302 25.1824C71.0732 25.9429 71.9733 27.1119 72.5306 28.5203H69.5944C69.2087 27.7457 68.6729 27.0837 67.9871 26.7035C67.3013 26.3232 66.5083 26.1331 65.6082 26.1331C64.6223 26.1331 63.7436 26.3514 62.9721 26.788C62.2006 27.2246 61.5934 27.8513 61.1504 28.6682C60.7218 29.485 60.5075 30.4357 60.5075 31.5201C60.5075 32.6046 60.7218 33.5552 61.1504 34.3721C61.5934 35.1889 62.2006 35.8227 62.9721 36.2734C63.7436 36.71 64.6223 36.9283 65.6082 36.9283C66.5083 36.9283 67.3013 36.7382 67.9871 36.3579C68.6729 35.9776 69.2087 35.2946 69.5944 34.52H72.5306C71.9733 35.9283 71.0732 37.1184 69.8302 37.879C68.6015 38.6395 67.1941 39.0197 65.6082 39.0197C64.208 39.0197 62.9292 38.7029 61.7719 38.0691C60.6146 37.4212 59.6931 36.5269 59.0073 35.3861C58.3358 34.2453 58 32.9567 58 31.5201Z" fill="#151514"/>
<g clip-path="url(#clip0_1178_576)">
<path d="M13.2927 19.7894C13.114 19.5819 12.8577 19.464 12.5798 19.464C12.3019 19.464 12.0457 19.5819 11.867 19.7894L11.433 19.3588C10.454 16.475 8.13083 14.17 5.21459 13.1889L4.64902 12.6278C4.80514 12.4573 4.89056 12.2371 4.89056 12.0043C4.89056 11.7714 4.80514 11.5512 4.64902 11.3808L5.21558 10.8186C8.0945 9.84048 10.4 7.55394 11.3858 4.69747L11.9504 4.13729C12.1232 4.29219 12.3451 4.37695 12.5788 4.37695C12.8125 4.37695 13.0344 4.29219 13.2073 4.13729L13.7738 4.69942C14.7596 7.55686 17.0661 9.84535 19.946 10.8235L20.5086 11.3817C20.3525 11.5522 20.2671 11.7724 20.2671 12.0052C20.2671 12.2381 20.3525 12.4573 20.5077 12.6278L19.9441 13.188C17.0337 14.1651 14.7115 16.4692 13.7267 19.3568L13.2907 19.7894H13.2927Z" fill="#151514"/>
<path d="M11.9534 4.20256C12.1301 4.34675 12.3491 4.42469 12.5798 4.42469C12.8106 4.42469 13.0295 4.34675 13.2063 4.20256L13.7326 4.72475C14.7243 7.58804 17.0357 9.88042 19.9215 10.8654L20.4438 11.3837C20.2985 11.5581 20.22 11.7753 20.22 12.0052C20.22 12.2352 20.2985 12.4505 20.4429 12.6258L19.9195 13.1461C17.0043 14.1291 14.6762 16.438 13.6864 19.3305L13.2946 19.7193C13.1091 19.5254 12.8538 19.4153 12.5798 19.4153C12.3059 19.4153 12.0506 19.5244 11.865 19.7193L11.4752 19.3325C10.9842 17.8916 10.1477 16.5627 9.05578 15.4901C7.98453 14.4379 6.66584 13.6283 5.24111 13.147L4.71579 12.6258C4.86112 12.4514 4.93966 12.2342 4.93966 12.0043C4.93966 11.7743 4.86112 11.5571 4.71579 11.3827L5.24209 10.8605C8.12691 9.87653 10.4363 7.58512 11.429 4.72281L11.9534 4.20256ZM13.2092 4.06812C13.0482 4.22789 12.8253 4.32726 12.5798 4.32726C12.3343 4.32726 12.1114 4.22789 11.9504 4.06812L11.3436 4.6702C10.3588 7.53348 8.07388 9.79956 5.18906 10.7757L4.58029 11.3798C4.74231 11.5396 4.84147 11.7607 4.84147 12.0043C4.84147 12.2478 4.74231 12.469 4.58029 12.6287L5.18808 13.2318C8.04835 14.1905 10.3902 16.4293 11.3898 19.3851L11.8709 19.8625C12.0329 19.6501 12.2902 19.5127 12.5798 19.5127C12.8695 19.5127 13.1267 19.6501 13.2887 19.8625L13.7718 19.3831C14.7537 16.4916 17.0592 14.2051 19.9725 13.2308L20.5784 12.6287C20.4173 12.469 20.3182 12.2488 20.3182 12.0052C20.3182 11.7617 20.4173 11.5405 20.5793 11.3808L19.9745 10.7806C17.0877 9.80346 14.8028 7.5364 13.818 4.67214L13.2092 4.06812Z" fill="#151514"/>
<path d="M11.6686 20.1655C11.6185 19.9628 11.5616 19.7612 11.4997 19.5634L11.8061 19.8674C11.7423 19.958 11.6961 20.0583 11.6686 20.1655Z" fill="#151514"/>
<path d="M11.6038 19.7349L11.7432 19.8732C11.7177 19.9122 11.6951 19.9541 11.6765 19.996C11.6529 19.9083 11.6293 19.8216 11.6038 19.7349ZM11.3898 19.3851C11.5125 19.7465 11.6146 20.1177 11.6951 20.4996C11.6912 20.4655 11.6892 20.4314 11.6892 20.3964C11.6892 20.1957 11.756 20.0106 11.8709 19.8625L11.3898 19.3851Z" fill="#151514"/>
<path d="M12.5798 4.27859C12.3717 4.27859 12.1753 4.20357 12.0211 4.06717L12.5798 3.51283L13.1385 4.06717C12.9844 4.20357 12.787 4.27859 12.5798 4.27859Z" fill="#151514"/>
<path d="M12.5798 3.58103L13.0659 4.06328C12.9274 4.17044 12.7575 4.2289 12.5798 4.2289C12.4021 4.2289 12.2322 4.17044 12.0938 4.06328L12.5798 3.58103ZM12.5798 3.44366L11.9504 4.06812C12.1114 4.22789 12.3343 4.32726 12.5798 4.32726C12.8253 4.32726 13.0482 4.22789 13.2092 4.06812L12.5798 3.44366Z" fill="#151514"/>
<path d="M11.4546 4.49096C11.539 4.22791 11.6117 3.96 11.6735 3.69208C11.7118 3.83042 11.7825 3.95902 11.8817 4.06716L11.4546 4.49096Z" fill="#151514"/>
<path d="M11.6843 3.86062C11.7187 3.93369 11.7629 4.00189 11.8149 4.06521L11.5596 4.31851C11.6048 4.16653 11.646 4.01455 11.6843 3.86062ZM11.6941 3.35694C11.6077 3.80607 11.4899 4.24445 11.3436 4.6702L11.9504 4.06812C11.7884 3.90834 11.6892 3.68818 11.6892 3.44365C11.6892 3.41442 11.6902 3.38519 11.6941 3.35694Z" fill="#151514"/>
<path d="M13.2779 4.06716C13.3781 3.95805 13.4488 3.82847 13.4871 3.68721C13.549 3.95902 13.6226 4.22791 13.707 4.49193L13.2779 4.06716Z" fill="#151514"/>
<path d="M13.4773 3.8577C13.5156 4.01261 13.5568 4.16751 13.6029 4.32047L13.3457 4.06521C13.3987 4.00189 13.4429 3.93174 13.4773 3.8577ZM13.4635 3.33259C13.4684 3.36863 13.4704 3.40566 13.4704 3.44365C13.4704 3.68818 13.3712 3.90834 13.2092 4.06812L13.818 4.67214C13.6687 4.23861 13.5499 3.79145 13.4635 3.33259Z" fill="#151514"/>
<path d="M12.5798 3.37446L11.9514 3.99797C11.8139 3.84599 11.7383 3.65017 11.7383 3.44363C11.7383 3.41635 11.7383 3.39005 11.7423 3.36374V3.35498C11.754 3.30821 11.7619 3.26047 11.7707 3.21371C11.8709 2.85909 12.2047 2.60968 12.5798 2.60968C12.9549 2.60968 13.2946 2.86396 13.3928 3.22735V3.24196L13.3987 3.24781C13.4056 3.27801 13.4115 3.30821 13.4154 3.33939C13.4193 3.37154 13.4223 3.40564 13.4223 3.4446C13.4223 3.65212 13.3467 3.84697 13.2092 3.99895L12.5798 3.37446Z" fill="#151514"/>
<path d="M12.5798 2.65742C12.9372 2.65742 13.2505 2.89416 13.3437 3.23417V3.26242L13.3536 3.27119C13.3585 3.29555 13.3634 3.3199 13.3663 3.34523C13.3702 3.37446 13.3722 3.40661 13.3722 3.44363C13.3722 3.62094 13.3133 3.78949 13.2053 3.92588L12.5798 3.30529L11.9543 3.92588C11.8463 3.78851 11.7874 3.62094 11.7874 3.44363C11.7874 3.41246 11.7884 3.39005 11.7914 3.37056V3.36374C11.8012 3.31796 11.809 3.27314 11.8169 3.22735C11.9141 2.89221 12.2263 2.65937 12.5779 2.65937M12.5798 2.56C12.1713 2.56 11.8277 2.83279 11.7226 3.20397C11.7138 3.25366 11.7049 3.30334 11.6941 3.35303C11.6941 3.354 11.6932 3.35597 11.6941 3.35694C11.6902 3.38519 11.6892 3.41442 11.6892 3.44365C11.6892 3.68818 11.7884 3.90834 11.9504 4.06812L12.5798 3.44366L13.2092 4.06812C13.3712 3.90834 13.4704 3.68818 13.4704 3.44365C13.4704 3.40566 13.4684 3.36863 13.4635 3.33259C13.4586 3.29459 13.4517 3.25853 13.4429 3.22248C13.4429 3.22248 13.4426 3.22183 13.4419 3.22053C13.3428 2.84058 12.9942 2.56 12.5798 2.56Z" fill="#151514"/>
<path d="M11.7226 3.20397C11.7089 3.25171 11.6991 3.30237 11.6941 3.35303C11.7049 3.30334 11.7138 3.25366 11.7226 3.20397Z" fill="#151514"/>
<path d="M4.0206 12.0043L4.57931 11.45C4.71678 11.6019 4.79237 11.7978 4.79237 12.0043C4.79237 12.2108 4.71678 12.4067 4.57931 12.5586L4.0206 12.0043Z" fill="#151514"/>
<path d="M4.57636 11.522C4.68437 11.6594 4.74328 11.827 4.74328 12.0043C4.74328 12.1816 4.68437 12.3501 4.57636 12.4865L4.09033 12.0043L4.57636 11.522ZM4.58029 11.3798L3.95089 12.0043L4.58029 12.6287C4.74231 12.469 4.84147 12.2478 4.84147 12.0043C4.84147 11.7607 4.74231 11.5396 4.58029 11.3798Z" fill="#151514"/>
<path d="M4.57931 11.3116C4.46934 11.2122 4.33874 11.1421 4.19833 11.1041C4.4713 11.0427 4.7423 10.9696 5.0084 10.8858L4.57931 11.3116Z" fill="#151514"/>
<path d="M4.83362 10.9901L4.57636 11.2453C4.51254 11.1927 4.44282 11.1489 4.3682 11.1148C4.52432 11.0768 4.67946 11.0359 4.83362 10.9901ZM5.18906 10.7757C4.75507 10.9229 4.30732 11.0408 3.84779 11.1265C3.88215 11.1226 3.91653 11.1206 3.95089 11.1206C4.19637 11.1206 4.41926 11.219 4.58029 11.3798L5.18906 10.7757Z" fill="#151514"/>
<path d="M5.0084 13.1217C4.74034 13.0379 4.46835 12.9649 4.19538 12.9045C4.33776 12.8665 4.46835 12.7963 4.57931 12.696L5.0084 13.1217Z" fill="#151514"/>
<path d="M4.57734 12.7632L4.8346 13.0185C4.67946 12.9736 4.52432 12.9317 4.36722 12.8947C4.44184 12.8606 4.51254 12.8158 4.57734 12.7632ZM4.58029 12.6287C4.41926 12.7895 4.19637 12.8879 3.95089 12.8879C3.90474 12.8879 3.85957 12.884 3.81539 12.8782C4.28375 12.9629 4.7423 13.0818 5.18808 13.2318L4.58029 12.6287Z" fill="#151514"/>
<path d="M3.95089 12.8392C3.91162 12.8392 3.86939 12.8363 3.82226 12.8295C3.80753 12.8265 3.79084 12.8246 3.77513 12.8207C3.38924 12.7379 3.11038 12.3949 3.11038 12.0043C3.11038 11.6136 3.36764 11.2941 3.73585 11.1966C3.77414 11.1908 3.81637 11.183 3.85859 11.1742C3.88706 11.1713 3.91947 11.1694 3.95187 11.1694C4.16102 11.1694 4.35739 11.2444 4.51057 11.3808L3.88215 12.0043L4.51057 12.6278C4.35739 12.7642 4.15905 12.8392 3.95089 12.8392Z" fill="#151514"/>
<path d="M3.95089 11.2181C4.1296 11.2181 4.29946 11.2765 4.43693 11.3837L3.81146 12.0043L4.43693 12.6249C4.29848 12.732 4.1296 12.7905 3.95089 12.7905C3.91358 12.7905 3.87332 12.7876 3.8311 12.7817C3.81539 12.7788 3.80065 12.7768 3.78396 12.773C3.42164 12.696 3.15849 12.3725 3.15849 12.0043C3.15849 11.636 3.39808 11.3379 3.74273 11.2453C3.78299 11.2385 3.82226 11.2317 3.8635 11.2229C3.89296 11.22 3.92242 11.2181 3.95089 11.2181ZM3.95089 11.1206C3.91653 11.1206 3.88215 11.1226 3.84779 11.1265C3.80557 11.1353 3.76434 11.1431 3.72211 11.1499C3.34114 11.2502 3.0603 11.5951 3.0603 12.0043C3.0603 12.4135 3.36175 12.7827 3.76335 12.8684C3.78004 12.8723 3.79771 12.8752 3.81539 12.8782C3.85957 12.884 3.90474 12.8879 3.95089 12.8879C4.19637 12.8879 4.41926 12.7895 4.58029 12.6287L3.95089 12.0043L4.58029 11.3798C4.41926 11.219 4.19637 11.1206 3.95089 11.1206Z" fill="#151514"/>
<path d="M11.9367 19.8586C12.0967 19.6686 12.3285 19.5615 12.5798 19.5615C12.8312 19.5615 13.0629 19.6696 13.223 19.8586L12.5798 20.4967L11.9367 19.8586Z" fill="#151514"/>
<path d="M12.5798 19.6102C12.8007 19.6102 13.0069 19.6988 13.1552 19.8567L12.5798 20.4276L12.0044 19.8567C12.1537 19.6988 12.3589 19.6102 12.5798 19.6102ZM12.5798 19.5127C12.2902 19.5127 12.0329 19.6501 11.8709 19.8625L12.5798 20.5659L13.2887 19.8625C13.1267 19.6501 12.8695 19.5127 12.5798 19.5127Z" fill="#151514"/>
<path d="M13.491 20.1664C13.4635 20.0593 13.4174 19.958 13.3536 19.8674L13.6619 19.5614C13.599 19.7592 13.5411 19.9619 13.491 20.1664Z" fill="#151514"/>
<path d="M13.5578 19.7339C13.5323 19.8216 13.5077 19.9093 13.4841 19.9979C13.4645 19.955 13.4419 19.9141 13.4164 19.8742L13.5578 19.7339ZM13.7718 19.3831L13.2887 19.8625C13.4036 20.0106 13.4704 20.1957 13.4704 20.3964C13.4704 20.4363 13.4675 20.4753 13.4625 20.5143C13.5431 20.1285 13.6462 19.7504 13.7718 19.3831Z" fill="#151514"/>
<path d="M12.5798 21.2313C12.2047 21.2313 11.8719 20.9819 11.7698 20.6234C11.7629 20.5824 11.7531 20.5357 11.7432 20.4889C11.7403 20.4616 11.7383 20.4285 11.7383 20.3954C11.7383 20.2288 11.7864 20.0719 11.8768 19.9365L12.5798 20.6341L13.2829 19.9365C13.3742 20.0719 13.4213 20.2288 13.4213 20.3954C13.4213 20.4314 13.4193 20.4675 13.4134 20.5074C13.4066 20.5406 13.3977 20.5785 13.3918 20.6165C13.2946 20.976 12.9608 21.2313 12.5798 21.2313Z" fill="#151514"/>
<path d="M11.8866 20.0154L12.5808 20.7042L13.275 20.0154C13.3398 20.1304 13.3742 20.26 13.3742 20.3964C13.3742 20.4285 13.3722 20.4616 13.3673 20.4977C13.3604 20.5308 13.3526 20.5669 13.3467 20.6039C13.2524 20.9449 12.9382 21.1826 12.5818 21.1826C12.2254 21.1826 11.918 20.9497 11.8208 20.6156C11.813 20.5717 11.8041 20.5279 11.7943 20.484C11.7914 20.4548 11.7894 20.4266 11.7894 20.3964C11.7894 20.26 11.8238 20.1304 11.8886 20.0154M13.2887 19.8625L12.5798 20.5659L11.8709 19.8625C11.756 20.0106 11.6892 20.1957 11.6892 20.3964C11.6892 20.4314 11.6912 20.4655 11.6951 20.4996C11.7049 20.5454 11.7148 20.5912 11.7226 20.637C11.8287 21.0082 12.1723 21.28 12.5798 21.28C12.9873 21.28 13.3388 21.0023 13.4409 20.6243C13.4468 20.5873 13.4547 20.5503 13.4625 20.5143C13.4675 20.4753 13.4704 20.4363 13.4704 20.3964C13.4704 20.1957 13.4036 20.0106 13.2887 19.8625Z" fill="#151514"/>
<path d="M11.6951 20.4996C11.701 20.5464 11.7099 20.5922 11.7226 20.637C11.7148 20.5912 11.7049 20.5454 11.6951 20.4996Z" fill="#151514"/>
<path d="M20.5793 12.5586C20.4419 12.4057 20.3672 12.2118 20.3672 12.0052C20.3672 11.7987 20.4429 11.6029 20.5803 11.4509L21.138 12.0043L20.5793 12.5586Z" fill="#151514"/>
<path d="M20.5833 11.523L21.0683 12.0043L20.5823 12.4865C20.4743 12.3492 20.4163 12.1816 20.4163 12.0052C20.4163 11.8289 20.4753 11.6594 20.5833 11.523ZM20.5793 11.3808C20.4173 11.5405 20.3182 11.7617 20.3182 12.0052C20.3182 12.2488 20.4173 12.469 20.5784 12.6287L21.2078 12.0043L20.5793 11.3808Z" fill="#151514"/>
<path d="M20.1552 10.8907C20.4164 10.9736 20.6844 11.0457 20.9564 11.1061C20.8179 11.144 20.6893 11.2142 20.5803 11.3116L20.1552 10.8907Z" fill="#151514"/>
<path d="M20.3299 10.995C20.4811 11.0388 20.6333 11.0797 20.7875 11.1177C20.7148 11.1518 20.6461 11.1947 20.5833 11.2463L20.3299 10.995ZM19.9745 10.7806L20.5793 11.3808C20.7404 11.221 20.9633 11.1216 21.2087 11.1216C21.2343 11.1216 21.2598 11.1226 21.2853 11.1255C20.8366 11.0398 20.3987 10.9248 19.9745 10.7806Z" fill="#151514"/>
<path d="M20.5793 12.697C20.6903 12.7973 20.8219 12.8684 20.9643 12.9054C20.6903 12.9658 20.4183 13.0379 20.1522 13.1208L20.5793 12.697Z" fill="#151514"/>
<path d="M20.5813 12.7632C20.6461 12.8158 20.7168 12.8606 20.7914 12.8947C20.6343 12.9317 20.4792 12.9736 20.325 13.0175L20.5813 12.7632ZM20.5784 12.6287L19.9725 13.2308C20.4164 13.0818 20.8749 12.9639 21.3442 12.8791C21.3001 12.885 21.2549 12.8889 21.2087 12.8889C20.9623 12.8889 20.7394 12.7895 20.5784 12.6287Z" fill="#151514"/>
<path d="M21.2087 12.8402C20.9996 12.8402 20.8032 12.7652 20.6491 12.6278L21.2775 12.0043L20.65 11.3818C20.8042 11.2454 21.0016 11.1704 21.2087 11.1704C21.2323 11.1704 21.2559 11.1704 21.2794 11.1743C21.3325 11.185 21.3894 11.1957 21.4464 11.2045C21.7998 11.3048 22.0512 11.6351 22.0512 12.0062C22.0512 12.3998 21.7694 12.7428 21.3825 12.8236L21.3364 12.8324C21.2912 12.8383 21.248 12.8402 21.2087 12.8402Z" fill="#151514"/>
<path d="M21.2087 11.2191C21.2323 11.2191 21.2519 11.2191 21.2706 11.222C21.3246 11.2327 21.3786 11.2424 21.4326 11.2512C21.7684 11.3486 22.0021 11.6575 22.0021 12.0053C22.0021 12.3755 21.737 12.6989 21.3747 12.7749C21.359 12.7778 21.3442 12.7808 21.3315 12.7827C21.2863 12.7886 21.2461 12.7915 21.2087 12.7915C21.03 12.7915 20.8602 12.733 20.7207 12.6249L21.3462 12.0043L20.7217 11.3847C20.8602 11.2775 21.031 11.2191 21.2087 11.2191ZM21.2087 11.1216C20.9633 11.1216 20.7404 11.221 20.5793 11.3808L21.2078 12.0043L20.5784 12.6287C20.7394 12.7895 20.9623 12.8889 21.2087 12.8889C21.2549 12.8889 21.3001 12.885 21.3442 12.8791C21.3609 12.8762 21.3766 12.8733 21.3924 12.8704C21.7959 12.7866 22.1003 12.431 22.1003 12.0053C22.1003 11.6019 21.8273 11.261 21.4542 11.1557C21.3973 11.147 21.3413 11.1363 21.2853 11.1255C21.2598 11.1226 21.2343 11.1216 21.2087 11.1216Z" fill="#151514"/>
<path d="M21.4542 11.1557C21.3973 11.147 21.3413 11.1363 21.2853 11.1255C21.3433 11.1294 21.3992 11.1402 21.4542 11.1557Z" fill="#151514"/>
<path d="M48.4999 12.5599H24.6532C24.6062 12.5599 24.5834 12.4942 24.6153 12.4596C24.7344 12.3303 24.8076 12.1549 24.8076 11.9617C24.8076 11.7682 24.7341 11.5907 24.6147 11.4604C24.5829 11.4258 24.6058 11.3599 24.6528 11.3599H48.4999V12.5599Z" fill="#151514"/>
<path d="M11.8599 48L11.8599 24.1533C11.8599 24.1064 11.9256 24.0836 11.9601 24.1154C12.0894 24.2345 12.2648 24.3077 12.458 24.3077C12.6515 24.3077 12.8291 24.2343 12.9593 24.1148C12.9939 24.0831 13.0599 24.106 13.0599 24.153L13.0599 48H11.8599Z" fill="#151514"/>
<path d="M38.5089 25.4278L38.98 26.6374C38.522 26.9018 37.8938 27.2455 37.0955 27.6685C36.2973 28.0783 35.5644 28.4419 34.897 28.7592V26.2209C35.355 25.9962 36.0028 25.6525 36.8403 25.1898C37.691 24.7271 38.4108 24.3305 38.9997 24H40.9038V39.017H38.5089V25.4278Z" fill="#151514"/>
<path d="M27.0662 39.04C25.7712 39.04 24.7298 38.8064 23.9421 38.3391C23.1677 37.8584 22.5535 37.2176 22.0996 36.4165L24.0222 35.1548C24.3159 35.769 24.7164 36.2296 25.2238 36.5367C25.7445 36.8437 26.3586 36.9973 27.0662 36.9973C27.934 36.9973 28.6216 36.8037 29.1289 36.4165C29.6363 36.016 29.89 35.4219 29.89 34.6341C29.89 33.8197 29.6096 33.2523 29.0488 32.9319C28.5014 32.5981 27.7071 32.4312 26.6657 32.4312H25.384V30.5287H26.4854C27.0195 30.5287 27.5135 30.4152 27.9674 30.1882C28.4347 29.9613 28.8018 29.6542 29.0689 29.267C29.3492 28.8665 29.4894 28.4192 29.4894 27.9252C29.4894 27.2977 29.2758 26.8238 28.8486 26.5033C28.4213 26.1696 27.8339 26.0027 27.0862 26.0027C26.1517 26.0027 25.4841 26.223 25.0836 26.6635C24.683 27.0908 24.5028 27.6649 24.5429 28.3858L22.2598 28.7263C22.1931 27.6849 22.3733 26.8104 22.8005 26.1028C23.2278 25.3952 23.8286 24.8678 24.6029 24.5207C25.3773 24.1736 26.2518 24 27.2264 24C28.1476 24 28.9621 24.1535 29.6697 24.4606C30.3906 24.7543 30.9514 25.1749 31.3519 25.7223C31.7524 26.2697 31.9527 26.9105 31.9527 27.6448C31.9527 28.5794 31.6256 29.3938 30.9714 30.0881C30.3305 30.7824 29.4694 31.2229 28.388 31.4099L28.1677 30.8892C29.1156 30.9025 29.9033 31.0694 30.5308 31.3898C31.1583 31.6969 31.6189 32.1175 31.9126 32.6515C32.2197 33.1855 32.3733 33.7997 32.3733 34.494C32.3733 35.255 32.193 35.9826 31.8325 36.6769C31.4854 37.3578 30.918 37.9252 30.1303 38.3791C29.3426 38.8197 28.3212 39.04 27.0662 39.04Z" fill="#151514"/>
</g>
<defs>
<clipPath id="clip0_1178_576">
<rect width="48" height="48" fill="white" transform="translate(0.5)"/>
</clipPath>
</defs>
</svg>
