<svg width="1180" height="602" viewBox="0 0 1180 602" fill="none" xmlns="http://www.w3.org/2000/svg" xmlns:xlink="http://www.w3.org/1999/xlink">
<g filter="url(#filter0_n_1233_5145)">
<rect width="1180" height="601" fill="url(#paint0_linear_1233_5145)"/>
<rect width="1180" height="601" fill="url(#paint1_radial_1233_5145)" fill-opacity="0.2"/>
</g>
<path d="M369.719 258.227H362.805V253.328H369.719V258.227ZM357.461 250.117C357.461 253.227 357.125 256.172 356.453 258.953C355.781 261.734 354.734 264.242 353.312 266.477C351.891 268.711 350.086 270.469 347.898 271.75L344.477 267.273C346.43 266.117 348.039 264.633 349.305 262.82C350.57 261.008 351.492 259.031 352.07 256.891C352.664 254.734 352.961 252.477 352.961 250.117V248.922H357.461V250.117ZM358.562 250.117C358.562 252.398 358.852 254.562 359.43 256.609C360.008 258.656 360.922 260.531 362.172 262.234C363.438 263.922 365.039 265.289 366.977 266.336L363.695 270.719C361.492 269.578 359.664 267.961 358.211 265.867C356.773 263.758 355.727 261.375 355.07 258.719C354.414 256.047 354.086 253.18 354.086 250.117V248.922H358.562V250.117ZM365.312 249.18H346.07V244.375H365.312V249.18ZM358.539 248.242H352.961V238.609H358.539V248.242ZM382.141 279.812H376.516V237.109H382.141V279.812ZM373.422 277.867H367.82V237.859H373.422V277.867ZM418.258 245.711H391.211V240.883H418.258V245.711ZM425.688 274.68H386.781V269.805H425.688V274.68ZM421.656 245.875C421.656 248.594 421.625 250.906 421.562 252.812C421.516 254.719 421.352 256.875 421.07 259.281C420.789 261.688 420.336 264.336 419.711 267.227L413.758 266.711C414.383 264.039 414.844 261.523 415.141 259.164C415.438 256.805 415.617 254.688 415.68 252.812C415.758 250.938 415.797 248.625 415.797 245.875V240.883H421.656V245.875ZM390.648 258.32L389.922 253.562L417.039 252.602V257.031L390.648 258.32ZM446.406 269.102H429.438V241.562H446.406V269.102ZM435.039 264.391H440.828V246.273H435.039V264.391ZM465.227 279.812H459.484V237.109H465.227V279.812ZM453.109 257.453H443.43V252.695H453.109V257.453ZM456.344 277.844H450.695V237.766H456.344V277.844ZM505.445 279.93H499.375V237.109H505.445V279.93ZM482.266 240.133C484.406 240.133 486.328 240.758 488.031 242.008C489.75 243.258 491.086 245.031 492.039 247.328C493.008 249.625 493.492 252.297 493.492 255.344C493.492 258.406 493.008 261.086 492.039 263.383C491.086 265.68 489.75 267.453 488.031 268.703C486.328 269.938 484.406 270.555 482.266 270.555C480.094 270.555 478.148 269.938 476.43 268.703C474.727 267.453 473.391 265.68 472.422 263.383C471.453 261.086 470.969 258.406 470.969 255.344C470.969 252.297 471.453 249.625 472.422 247.328C473.391 245.031 474.727 243.258 476.43 242.008C478.148 240.758 480.094 240.133 482.266 240.133ZM482.266 245.547C481.172 245.531 480.203 245.906 479.359 246.672C478.531 247.422 477.891 248.539 477.438 250.023C477 251.492 476.781 253.266 476.781 255.344C476.781 257.422 477 259.195 477.438 260.664C477.891 262.133 478.531 263.25 479.359 264.016C480.203 264.766 481.172 265.141 482.266 265.141C483.344 265.141 484.297 264.766 485.125 264.016C485.953 263.25 486.594 262.133 487.047 260.664C487.5 259.195 487.727 257.422 487.727 255.344C487.727 253.266 487.5 251.492 487.047 250.023C486.594 248.539 485.953 247.422 485.125 246.672C484.312 245.906 483.359 245.531 482.266 245.547ZM545.992 263.922H515.805V259.211H545.992V263.922ZM550.234 274.844H511.234V269.992H550.234V274.844ZM545.664 245.148H521.898V260.477H515.805V240.273H545.664V245.148ZM544.656 254.312H520.117V249.648H544.656V254.312ZM568.445 268.797H562.492V258.719H568.445V268.797ZM565.422 239.688C567.594 239.688 569.562 240.133 571.328 241.023C573.109 241.914 574.516 243.156 575.547 244.75C576.594 246.328 577.117 248.125 577.117 250.141C577.117 252.156 576.594 253.961 575.547 255.555C574.516 257.133 573.109 258.367 571.328 259.258C569.562 260.133 567.594 260.57 565.422 260.57C563.188 260.57 561.18 260.133 559.398 259.258C557.617 258.367 556.219 257.133 555.203 255.555C554.203 253.961 553.703 252.156 553.703 250.141C553.703 248.125 554.203 246.328 555.203 244.75C556.219 243.156 557.617 241.914 559.398 241.023C561.18 240.133 563.188 239.688 565.422 239.688ZM565.422 244.75C564.281 244.75 563.266 244.969 562.375 245.406C561.5 245.828 560.805 246.445 560.289 247.258C559.789 248.07 559.539 249.031 559.539 250.141C559.539 251.234 559.789 252.188 560.289 253C560.805 253.812 561.508 254.438 562.398 254.875C563.289 255.312 564.297 255.531 565.422 255.531C566.516 255.531 567.5 255.312 568.375 254.875C569.25 254.438 569.938 253.812 570.438 253C570.953 252.188 571.211 251.234 571.211 250.141C571.211 249.031 570.953 248.078 570.438 247.281C569.938 246.469 569.25 245.844 568.375 245.406C567.516 244.969 566.531 244.75 565.422 244.75ZM586.586 279.812H580.609V237.109H586.586V279.812ZM592.375 258.906H584.758V253.867H592.375V258.906ZM552.203 266.406C556.125 266.391 559.305 266.367 561.742 266.336C564.195 266.305 566.914 266.211 569.898 266.055C572.898 265.883 575.711 265.617 578.336 265.258L578.711 269.664C575.977 270.18 573.125 270.562 570.156 270.812C567.188 271.047 564.375 271.188 561.719 271.234C559.062 271.266 556.156 271.273 553 271.258L552.203 266.406ZM639.133 262.891H633.156V237.109H639.133V262.891ZM644.898 252.648H637.445V247.68H644.898V252.648ZM639.133 279.344H611.242V264.766H639.133V279.344ZM617.172 274.539H633.227V269.453H617.172V274.539ZM630.602 245.758H605.266V241.023H630.602V245.758ZM617.969 247.023C620.016 247.023 621.828 247.352 623.406 248.008C625 248.648 626.242 249.547 627.133 250.703C628.023 251.859 628.469 253.195 628.469 254.711C628.469 256.227 628.023 257.57 627.133 258.742C626.242 259.898 625 260.805 623.406 261.461C621.828 262.102 620.016 262.422 617.969 262.422C615.891 262.422 614.047 262.102 612.438 261.461C610.844 260.805 609.602 259.898 608.711 258.742C607.82 257.57 607.375 256.227 607.375 254.711C607.375 253.195 607.82 251.859 608.711 250.703C609.602 249.547 610.844 248.648 612.438 248.008C614.047 247.352 615.891 247.023 617.969 247.023ZM617.969 251.523C617 251.523 616.156 251.648 615.438 251.898C614.719 252.133 614.164 252.492 613.773 252.977C613.383 253.445 613.188 254.023 613.188 254.711C613.188 255.414 613.383 256.016 613.773 256.516C614.164 257 614.719 257.367 615.438 257.617C616.156 257.867 617 258 617.969 258.016C618.938 258 619.781 257.867 620.5 257.617C621.219 257.367 621.781 257 622.188 256.516C622.594 256.016 622.797 255.414 622.797 254.711C622.797 254.023 622.586 253.445 622.164 252.977C621.758 252.492 621.195 252.133 620.477 251.898C619.758 251.648 618.922 251.523 617.969 251.523ZM620.945 243.578H614.969V236.898H620.945V243.578ZM657.273 242.055C657.273 245.977 657.094 249.547 656.734 252.766C656.375 255.984 655.719 259.102 654.766 262.117C653.828 265.133 652.492 267.992 650.758 270.695L646.117 268.234C647.789 265.734 649.055 263.188 649.914 260.594C650.789 258 651.383 255.297 651.695 252.484C652.023 249.672 652.188 246.367 652.188 242.57V242.055H657.273ZM655.375 246.859H647.523V242.055H655.375V246.859ZM666.812 242.055C666.812 246.383 666.672 250.227 666.391 253.586C666.109 256.93 665.492 260.25 664.539 263.547C663.586 266.844 662.18 269.93 660.32 272.805L655.773 270.32C657.523 267.633 658.828 264.852 659.688 261.977C660.547 259.102 661.109 256.203 661.375 253.281C661.641 250.344 661.773 246.773 661.773 242.57V242.055H666.812ZM665.125 246.859H658.516V242.055H665.125V246.859ZM684.109 279.812H678.367V237.109H684.109V279.812ZM670.984 257.945H664.75V253.164H670.984V257.945ZM675.672 277.938H670.07V238.117H675.672V277.938Z" fill="white"/>
<path d="M357.633 313.398C359.789 313.398 361.734 313.82 363.469 314.664C365.219 315.492 366.586 316.648 367.57 318.133C368.555 319.602 369.047 321.273 369.047 323.148C369.047 324.992 368.555 326.656 367.57 328.141C366.586 329.625 365.219 330.781 363.469 331.609C361.734 332.438 359.789 332.852 357.633 332.852C355.477 332.852 353.523 332.438 351.773 331.609C350.023 330.781 348.648 329.625 347.648 328.141C346.664 326.656 346.172 324.992 346.172 323.148C346.172 321.273 346.664 319.602 347.648 318.133C348.648 316.648 350.023 315.492 351.773 314.664C353.523 313.82 355.477 313.398 357.633 313.398ZM357.633 318.297C356.555 318.297 355.586 318.492 354.727 318.883C353.867 319.258 353.195 319.812 352.711 320.547C352.227 321.281 351.984 322.148 351.984 323.148C351.984 324.133 352.227 325 352.711 325.75C353.195 326.484 353.867 327.047 354.727 327.438C355.586 327.828 356.555 328.031 357.633 328.047C358.727 328.031 359.695 327.828 360.539 327.438C361.398 327.047 362.07 326.484 362.555 325.75C363.039 325 363.281 324.133 363.281 323.148C363.281 322.148 363.039 321.281 362.555 320.547C362.07 319.812 361.398 319.258 360.539 318.883C359.695 318.492 358.727 318.297 357.633 318.297ZM381.211 333.531H375.234V312.109H381.211V333.531ZM381.211 346.891H358.547V352.094H352.711V342.531H375.258V339.906H352.617V335.289H381.211V346.891ZM382.383 354.344H352.711V349.633H382.383V354.344ZM418.547 327.391H410.344V322.539H418.547V327.391ZM422.953 337.492H417V312.109H422.953V337.492ZM408.375 338.43C411.422 338.43 414.047 338.758 416.25 339.414C418.453 340.055 420.141 340.992 421.312 342.227C422.5 343.461 423.094 344.938 423.094 346.656C423.094 348.359 422.5 349.82 421.312 351.039C420.141 352.273 418.453 353.219 416.25 353.875C414.047 354.531 411.422 354.867 408.375 354.883C405.359 354.867 402.75 354.531 400.547 353.875C398.359 353.219 396.672 352.273 395.484 351.039C394.312 349.82 393.727 348.359 393.727 346.656C393.727 344.938 394.312 343.461 395.484 342.227C396.672 340.992 398.359 340.055 400.547 339.414C402.75 338.758 405.359 338.43 408.375 338.43ZM408.375 342.977C406.5 342.977 404.914 343.109 403.617 343.375C402.32 343.641 401.336 344.047 400.664 344.594C399.992 345.141 399.656 345.828 399.656 346.656C399.656 347.438 399.992 348.109 400.664 348.672C401.336 349.219 402.32 349.633 403.617 349.914C404.914 350.18 406.5 350.312 408.375 350.312C410.297 350.312 411.906 350.18 413.203 349.914C414.5 349.633 415.477 349.219 416.133 348.672C416.789 348.109 417.117 347.438 417.117 346.656C417.117 345.828 416.789 345.141 416.133 344.594C415.477 344.047 414.5 343.641 413.203 343.375C411.906 343.109 410.297 342.977 408.375 342.977ZM401.883 319.234C401.883 322 401.438 324.594 400.547 327.016C399.656 329.438 398.305 331.57 396.492 333.414C394.695 335.242 392.484 336.609 389.859 337.516L386.742 332.758C389.023 331.992 390.93 330.906 392.461 329.5C394.008 328.078 395.148 326.484 395.883 324.719C396.633 322.938 397.008 321.109 397.008 319.234V316.422H401.883V319.234ZM403.102 319.188C403.102 320.922 403.453 322.602 404.156 324.227C404.875 325.852 405.969 327.32 407.438 328.633C408.906 329.945 410.734 330.969 412.922 331.703L409.969 336.391C407.391 335.547 405.219 334.266 403.453 332.547C401.703 330.812 400.398 328.797 399.539 326.5C398.68 324.203 398.25 321.766 398.25 319.188V316.422H403.102V319.188ZM411.609 319.539H388.453V314.711H411.609V319.539ZM448.875 320.125H430.453V315.25H448.875V320.125ZM441.797 335.828H435.844V325.094H441.797V335.828ZM452.414 317.898C452.383 320.367 452.312 322.5 452.203 324.297C452.109 326.078 451.859 328.117 451.453 330.414L445.547 329.898C446 327.555 446.281 325.516 446.391 323.781C446.5 322.031 446.562 320.07 446.578 317.898V315.25H452.414V317.898ZM462.844 344.055H456.703V312.109H462.844V344.055ZM468.023 330.156H460.43V325.164H468.023V330.156ZM464.18 354.086H434.203V349.258H464.18V354.086ZM440.203 350.781H434.203V341.219H440.203V350.781ZM427.922 333.531C433.188 333.516 437.961 333.422 442.242 333.25C446.523 333.078 450.586 332.719 454.43 332.172L454.711 336.484C450.789 337.203 446.648 337.688 442.289 337.938C437.93 338.172 433.312 338.289 428.438 338.289L427.922 333.531ZM505.734 354.93H499.758V312.109H505.734V354.93ZM476.086 340C480.086 340.016 483.695 339.922 486.914 339.719C490.133 339.5 493.398 339.125 496.711 338.594L497.25 343.422C493.969 344 490.695 344.398 487.43 344.617C484.18 344.82 480.398 344.922 476.086 344.922H472.266V340H476.086ZM492.492 332.148H478.43V341.875H472.266V327.461H486.398V320.547H472.219V315.719H492.492V332.148ZM550.43 335.711H511.43V331.258H550.43V335.711ZM545.789 347.898H521.859V351.648H515.883V344.125H539.859V341.992H515.859V337.82H545.789V347.898ZM547.008 354.414H515.883V350.336H547.008V354.414ZM545.719 322.938H522.234V326.5H516.281V319.141H539.719V316.984H516.211V312.906H545.719V322.938ZM546.445 329.266H516.281V325.234H546.445V329.266ZM579.516 321.789C579.516 325.539 579.055 329.031 578.133 332.266C577.227 335.5 575.852 338.352 574.008 340.82C572.164 343.273 569.867 345.133 567.117 346.398L563.484 341.406C565.906 340.375 567.945 338.859 569.602 336.859C571.273 334.859 572.523 332.562 573.352 329.969C574.18 327.375 574.594 324.648 574.594 321.789V315.414H579.516V321.789ZM580.664 321.789C580.664 324.508 581.062 327.102 581.859 329.57C582.672 332.023 583.891 334.219 585.516 336.156C587.141 338.094 589.117 339.555 591.445 340.539L587.93 345.344C585.289 344.141 583.047 342.359 581.203 340C579.375 337.641 578.008 334.906 577.102 331.797C576.195 328.688 575.742 325.352 575.742 321.789V315.414H580.664V321.789ZM599.766 354.93H593.695V312.109H599.766V354.93ZM620.133 319.281C620.133 322 619.68 324.555 618.773 326.945C617.883 329.32 616.531 331.391 614.719 333.156C612.922 334.906 610.703 336.227 608.062 337.117L604.922 332.5C607.188 331.75 609.094 330.688 610.641 329.312C612.188 327.922 613.336 326.367 614.086 324.648C614.852 322.914 615.234 321.125 615.234 319.281V316.516H620.133V319.281ZM621.281 319.328C621.281 321.062 621.633 322.742 622.336 324.367C623.055 325.977 624.156 327.43 625.641 328.727C627.125 330.023 628.977 331.039 631.195 331.773L628.195 336.391C625.602 335.547 623.422 334.273 621.656 332.57C619.906 330.852 618.594 328.867 617.719 326.617C616.844 324.352 616.406 321.922 616.406 319.328V316.516H621.281V319.328ZM629.789 319.422H606.539V314.641H629.789V319.422ZM639.375 337.891H633.398V312.109H639.375V337.891ZM645.141 327.461H637.688V322.492H645.141V327.461ZM639.375 354.812H633.398V344.477H610.664V339.719H639.375V354.812ZM680.672 354.812H674.766V312.109H680.672V354.812ZM687 333.766H679.359V328.867H687V333.766ZM671.859 323.312H646.805V318.508H671.859V323.312ZM659.438 325.68C661.516 325.68 663.383 326.117 665.039 326.992C666.695 327.852 667.992 329.055 668.93 330.602C669.883 332.148 670.359 333.898 670.359 335.852C670.359 337.805 669.883 339.555 668.93 341.102C667.992 342.648 666.695 343.859 665.039 344.734C663.383 345.594 661.516 346.023 659.438 346.023C657.359 346.023 655.492 345.594 653.836 344.734C652.18 343.859 650.883 342.648 649.945 341.102C649.008 339.555 648.539 337.805 648.539 335.852C648.539 333.898 649.008 332.148 649.945 330.602C650.883 329.055 652.18 327.852 653.836 326.992C655.492 326.117 657.359 325.68 659.438 325.68ZM659.438 330.555C658.453 330.555 657.562 330.773 656.766 331.211C655.984 331.633 655.367 332.25 654.914 333.062C654.477 333.859 654.258 334.789 654.258 335.852C654.258 336.93 654.477 337.867 654.914 338.664C655.367 339.461 655.984 340.078 656.766 340.516C657.562 340.938 658.453 341.148 659.438 341.148C660.453 341.148 661.352 340.938 662.133 340.516C662.914 340.078 663.516 339.461 663.938 338.664C664.375 337.867 664.594 336.93 664.594 335.852C664.594 334.789 664.375 333.859 663.938 333.062C663.516 332.25 662.914 331.633 662.133 331.211C661.352 330.773 660.453 330.555 659.438 330.555ZM662.414 320.336H656.461V312.789H662.414V320.336ZM712.711 331.445H705.445V326.547H712.711V331.445ZM700.969 323.172C700.969 326.5 700.625 329.664 699.938 332.664C699.266 335.664 698.211 338.344 696.773 340.703C695.352 343.062 693.547 344.914 691.359 346.258L687.703 341.805C689.719 340.555 691.375 338.945 692.672 336.977C693.969 334.992 694.906 332.836 695.484 330.508C696.078 328.18 696.375 325.734 696.375 323.172V315.812H700.969V323.172ZM702.164 322.891C702.164 325.406 702.414 327.766 702.914 329.969C703.414 332.156 704.242 334.188 705.398 336.062C706.57 337.938 708.078 339.477 709.922 340.68L706.688 345.273C704.516 343.961 702.766 342.148 701.438 339.836C700.109 337.523 699.148 334.953 698.555 332.125C697.977 329.297 697.688 326.219 697.688 322.891V315.812H702.164V322.891ZM725.484 354.812H719.742V312.109H725.484V354.812ZM716.555 352.844H710.953V312.766H716.555V352.844ZM744.633 345.836H738.703V333.859H744.633V345.836ZM760.336 345.836H754.312V333.859H760.336V345.836ZM769.008 349.82H730.008V344.922H769.008V349.82ZM749.438 314.219C752.516 314.219 755.266 314.695 757.688 315.648C760.125 316.602 762.031 317.945 763.406 319.68C764.797 321.414 765.492 323.406 765.492 325.656C765.492 327.922 764.805 329.922 763.43 331.656C762.055 333.375 760.148 334.711 757.711 335.664C755.289 336.602 752.531 337.078 749.438 337.094C746.359 337.078 743.602 336.602 741.164 335.664C738.742 334.711 736.844 333.375 735.469 331.656C734.094 329.922 733.406 327.922 733.406 325.656C733.406 323.406 734.094 321.414 735.469 319.68C736.844 317.945 738.75 316.602 741.188 315.648C743.625 314.695 746.375 314.219 749.438 314.219ZM749.438 318.953C747.406 318.938 745.633 319.195 744.117 319.727C742.602 320.258 741.422 321.031 740.578 322.047C739.734 323.047 739.312 324.25 739.312 325.656C739.312 327.047 739.734 328.258 740.578 329.289C741.422 330.305 742.602 331.094 744.117 331.656C745.648 332.203 747.422 332.477 749.438 332.477C751.438 332.477 753.203 332.203 754.734 331.656C756.266 331.094 757.453 330.305 758.297 329.289C759.156 328.258 759.586 327.047 759.586 325.656C759.586 324.25 759.164 323.047 758.32 322.047C757.477 321.047 756.289 320.281 754.758 319.75C753.242 319.203 751.469 318.938 749.438 318.953ZM776.977 350.922C776.273 350.922 775.617 350.742 775.008 350.383C774.398 350.008 773.922 349.523 773.578 348.93C773.234 348.32 773.062 347.664 773.062 346.961C773.062 346.273 773.234 345.633 773.578 345.039C773.922 344.43 774.398 343.953 775.008 343.609C775.617 343.266 776.273 343.094 776.977 343.094C777.68 343.094 778.328 343.266 778.922 343.609C779.531 343.953 780.016 344.43 780.375 345.039C780.734 345.633 780.914 346.273 780.914 346.961C780.914 347.664 780.734 348.32 780.375 348.93C780.016 349.523 779.531 350.008 778.922 350.383C778.328 350.742 777.68 350.922 776.977 350.922Z" fill="white"/>
<rect width="601" height="163" transform="translate(1086 0.5) rotate(90)" fill="url(#pattern0_1233_5145)"/>
<g clip-path="url(#clip0_1233_5145)">
<path d="M206.644 265.781C206.104 265.154 205.33 264.798 204.49 264.798C203.651 264.798 202.877 265.154 202.337 265.781L201.026 264.48C198.068 255.768 191.051 248.805 182.241 245.842L180.533 244.146C181.004 243.631 181.262 242.966 181.262 242.263C181.262 241.56 181.004 240.894 180.533 240.379L182.244 238.681C190.941 235.727 197.905 228.819 200.883 220.19L202.589 218.498C203.111 218.966 203.781 219.222 204.487 219.222C205.193 219.222 205.864 218.966 206.386 218.498L208.097 220.196C211.075 228.828 218.043 235.741 226.742 238.696L228.442 240.382C227.97 240.897 227.712 241.563 227.712 242.266C227.712 242.969 227.97 243.631 228.439 244.146L226.736 245.839C217.945 248.791 210.93 255.751 207.955 264.474L206.638 265.781H206.644Z" fill="#FEFBF4"/>
<path d="M202.598 218.695C203.132 219.131 203.793 219.366 204.49 219.366C205.187 219.366 205.849 219.131 206.383 218.695L207.972 220.273C210.968 228.922 217.951 235.847 226.668 238.823L228.246 240.388C227.807 240.915 227.57 241.571 227.57 242.266C227.57 242.96 227.807 243.611 228.243 244.141L226.662 245.712C217.856 248.682 210.823 255.657 207.833 264.394L206.65 265.569C206.089 264.983 205.318 264.65 204.49 264.65C203.663 264.65 202.891 264.98 202.331 265.569L201.153 264.4C199.67 260.048 197.143 256.033 193.845 252.793C190.609 249.615 186.625 247.169 182.321 245.715L180.734 244.141C181.173 243.614 181.411 242.957 181.411 242.263C181.411 241.568 181.173 240.912 180.734 240.385L182.324 238.808C191.039 235.835 198.015 228.913 201.014 220.267L202.598 218.695ZM206.392 218.289C205.905 218.772 205.232 219.072 204.49 219.072C203.749 219.072 203.075 218.772 202.589 218.289L200.756 220.108C197.781 228.757 190.879 235.603 182.164 238.552L180.325 240.376C180.814 240.859 181.114 241.527 181.114 242.263C181.114 242.999 180.814 243.667 180.325 244.149L182.161 245.971C190.801 248.867 197.876 255.63 200.895 264.559L202.349 266.001C202.838 265.36 203.615 264.945 204.49 264.945C205.365 264.945 206.142 265.36 206.632 266.001L208.091 264.553C211.057 255.818 218.022 248.911 226.822 245.968L228.652 244.149C228.166 243.667 227.866 243.002 227.866 242.266C227.866 241.53 228.166 240.862 228.655 240.379L226.828 238.567C218.108 235.615 211.206 228.766 208.231 220.114L206.392 218.289Z" fill="#FEFBF4"/>
<path d="M201.738 266.917C201.586 266.304 201.414 265.695 201.227 265.098L202.153 266.016C201.96 266.29 201.821 266.593 201.738 266.917Z" fill="#FEFBF4"/>
<path d="M201.542 265.616L201.963 266.034C201.886 266.151 201.818 266.278 201.761 266.405C201.69 266.14 201.619 265.878 201.542 265.616ZM200.895 264.559C201.266 265.651 201.574 266.772 201.818 267.926C201.806 267.823 201.8 267.72 201.8 267.614C201.8 267.008 202.002 266.449 202.349 266.001L200.895 264.559Z" fill="#FEFBF4"/>
<path d="M204.49 218.925C203.861 218.925 203.268 218.698 202.802 218.286L204.49 216.612L206.178 218.286C205.712 218.698 205.116 218.925 204.49 218.925Z" fill="#FEFBF4"/>
<path d="M204.49 216.818L205.958 218.275C205.54 218.598 205.027 218.775 204.49 218.775C203.953 218.775 203.44 218.598 203.022 218.275L204.49 216.818ZM204.49 216.403L202.589 218.289C203.075 218.772 203.749 219.072 204.49 219.072C205.232 219.072 205.905 218.772 206.392 218.289L204.49 216.403Z" fill="#FEFBF4"/>
<path d="M201.091 219.567C201.346 218.772 201.566 217.963 201.752 217.153C201.868 217.571 202.082 217.96 202.381 218.286L201.091 219.567Z" fill="#FEFBF4"/>
<path d="M201.785 217.662C201.889 217.883 202.022 218.089 202.18 218.28L201.408 219.046C201.545 218.586 201.669 218.127 201.785 217.662ZM201.815 216.141C201.554 217.498 201.198 218.822 200.756 220.108L202.589 218.289C202.099 217.807 201.8 217.141 201.8 216.403C201.8 216.314 201.803 216.226 201.815 216.141Z" fill="#FEFBF4"/>
<path d="M206.599 218.286C206.902 217.957 207.115 217.565 207.231 217.139C207.418 217.96 207.64 218.772 207.895 219.569L206.599 218.283V218.286Z" fill="#FEFBF4"/>
<path d="M207.201 217.654C207.317 218.121 207.442 218.589 207.581 219.051L206.804 218.28C206.964 218.089 207.097 217.877 207.201 217.654ZM207.16 216.067C207.175 216.176 207.18 216.288 207.18 216.403C207.18 217.141 206.881 217.807 206.392 218.289L208.231 220.114C207.78 218.804 207.421 217.453 207.16 216.067Z" fill="#FEFBF4"/>
<path d="M204.49 216.194L202.592 218.077C202.177 217.618 201.948 217.027 201.948 216.403C201.948 216.32 201.948 216.241 201.96 216.161V216.135C201.996 215.994 202.019 215.849 202.046 215.708C202.349 214.637 203.357 213.883 204.49 213.883C205.623 213.883 206.65 214.652 206.946 215.749V215.794L206.964 215.811C206.985 215.902 207.003 215.994 207.014 216.088C207.026 216.185 207.035 216.288 207.035 216.406C207.035 217.033 206.807 217.621 206.392 218.08L204.493 216.197L204.49 216.194Z" fill="#FEFBF4"/>
<path d="M204.49 214.028C205.57 214.028 206.516 214.743 206.798 215.77V215.855L206.828 215.882C206.842 215.955 206.857 216.029 206.866 216.105C206.878 216.194 206.884 216.291 206.884 216.403C206.884 216.938 206.706 217.447 206.38 217.859L204.49 215.985L202.601 217.859C202.274 217.445 202.096 216.938 202.096 216.403C202.096 216.309 202.099 216.241 202.108 216.182V216.161C202.138 216.023 202.162 215.888 202.185 215.749C202.479 214.737 203.422 214.034 204.484 214.034M204.49 213.733C203.256 213.733 202.218 214.557 201.901 215.679C201.874 215.829 201.847 215.979 201.815 216.129C201.815 216.132 201.812 216.138 201.815 216.141C201.803 216.226 201.8 216.314 201.8 216.403C201.8 217.141 202.099 217.807 202.589 218.289L204.49 216.403L206.392 218.289C206.881 217.807 207.18 217.141 207.18 216.403C207.18 216.288 207.175 216.176 207.16 216.067C207.145 215.952 207.124 215.844 207.097 215.735C207.097 215.735 207.096 215.733 207.094 215.729C206.795 214.581 205.742 213.733 204.49 213.733Z" fill="#FEFBF4"/>
<path d="M201.901 215.679C201.859 215.823 201.83 215.976 201.815 216.129C201.847 215.979 201.874 215.829 201.901 215.679Z" fill="#FEFBF4"/>
<path d="M178.634 242.263L180.322 240.588C180.737 241.048 180.966 241.639 180.966 242.263C180.966 242.887 180.737 243.479 180.322 243.938L178.634 242.263Z" fill="#FEFBF4"/>
<path d="M180.313 240.806C180.639 241.221 180.817 241.727 180.817 242.263C180.817 242.799 180.639 243.308 180.313 243.72L178.845 242.263L180.313 240.806ZM180.325 240.376L178.424 242.263L180.325 244.149C180.814 243.667 181.114 242.999 181.114 242.263C181.114 241.527 180.814 240.859 180.325 240.376Z" fill="#FEFBF4"/>
<path d="M180.322 240.17C179.99 239.87 179.595 239.658 179.171 239.544C179.996 239.358 180.814 239.138 181.618 238.884L180.322 240.17Z" fill="#FEFBF4"/>
<path d="M181.09 239.199L180.313 239.97C180.12 239.811 179.91 239.679 179.684 239.576C180.156 239.461 180.625 239.338 181.09 239.199ZM182.164 238.552C180.853 238.996 179.5 239.352 178.112 239.611C178.216 239.6 178.32 239.594 178.424 239.594C179.165 239.594 179.839 239.891 180.325 240.376L182.164 238.552Z" fill="#FEFBF4"/>
<path d="M181.618 245.639C180.808 245.386 179.987 245.165 179.162 244.982C179.592 244.868 179.987 244.656 180.322 244.353L181.618 245.639Z" fill="#FEFBF4"/>
<path d="M180.316 244.556L181.093 245.327C180.625 245.191 180.156 245.065 179.681 244.953C179.907 244.85 180.12 244.715 180.316 244.556ZM180.325 244.149C179.839 244.635 179.165 244.932 178.424 244.932C178.284 244.932 178.148 244.921 178.014 244.903C179.429 245.159 180.814 245.518 182.161 245.971L180.325 244.149Z" fill="#FEFBF4"/>
<path d="M178.424 244.785C178.305 244.785 178.177 244.776 178.035 244.756C177.991 244.747 177.94 244.741 177.893 244.729C176.727 244.479 175.885 243.443 175.885 242.263C175.885 241.083 176.662 240.118 177.774 239.823C177.89 239.806 178.017 239.782 178.145 239.756C178.231 239.747 178.329 239.741 178.427 239.741C179.058 239.741 179.652 239.967 180.114 240.379L178.216 242.263L180.114 244.147C179.652 244.559 179.055 244.785 178.427 244.785H178.424Z" fill="#FEFBF4"/>
<path d="M178.424 239.888C178.963 239.888 179.477 240.065 179.892 240.388L178.002 242.263L179.892 244.138C179.474 244.461 178.963 244.638 178.424 244.638C178.311 244.638 178.189 244.629 178.062 244.612C178.014 244.603 177.97 244.597 177.919 244.585C176.825 244.353 176.03 243.375 176.03 242.263C176.03 241.151 176.754 240.25 177.795 239.97C177.916 239.95 178.035 239.929 178.16 239.903C178.249 239.894 178.338 239.888 178.424 239.888ZM178.424 239.594C178.32 239.594 178.216 239.6 178.112 239.611C177.985 239.638 177.86 239.661 177.733 239.682C176.582 239.985 175.733 241.027 175.733 242.263C175.733 243.499 176.644 244.614 177.857 244.873C177.908 244.885 177.961 244.894 178.014 244.903C178.148 244.921 178.284 244.932 178.424 244.932C179.165 244.932 179.839 244.635 180.325 244.149L178.424 242.263L180.325 240.376C179.839 239.891 179.165 239.594 178.424 239.594Z" fill="#FEFBF4"/>
<path d="M202.547 265.99C203.031 265.416 203.731 265.092 204.49 265.092C205.25 265.092 205.95 265.419 206.433 265.99L204.49 267.917L202.547 265.99Z" fill="#FEFBF4"/>
<path d="M204.49 265.239C205.158 265.239 205.78 265.507 206.228 265.984L204.49 267.708L202.752 265.984C203.203 265.507 203.823 265.239 204.49 265.239ZM204.49 264.945C203.615 264.945 202.838 265.36 202.349 266.001L204.49 268.126L206.632 266.001C206.142 265.36 205.365 264.945 204.49 264.945Z" fill="#FEFBF4"/>
<path d="M207.243 266.92C207.16 266.596 207.02 266.29 206.828 266.016L207.759 265.092C207.569 265.689 207.397 266.302 207.246 266.92H207.243Z" fill="#FEFBF4"/>
<path d="M207.444 265.613C207.367 265.878 207.293 266.143 207.222 266.41C207.163 266.281 207.094 266.157 207.017 266.037L207.444 265.613ZM208.091 264.553L206.632 266.001C206.979 266.449 207.18 267.008 207.18 267.614C207.18 267.735 207.172 267.852 207.157 267.97C207.4 266.805 207.711 265.663 208.091 264.553Z" fill="#FEFBF4"/>
<path d="M204.49 270.136C203.357 270.136 202.352 269.383 202.043 268.3C202.022 268.176 201.993 268.035 201.963 267.894C201.954 267.811 201.948 267.711 201.948 267.611C201.948 267.108 202.094 266.634 202.366 266.225L204.49 268.332L206.614 266.225C206.89 266.634 207.032 267.108 207.032 267.611C207.032 267.72 207.026 267.829 207.008 267.95C206.988 268.05 206.961 268.164 206.943 268.279C206.65 269.365 205.638 270.136 204.487 270.136H204.49Z" fill="#FEFBF4"/>
<path d="M202.396 266.463L204.493 268.544L206.59 266.463C206.786 266.811 206.89 267.202 206.89 267.614C206.89 267.711 206.884 267.811 206.869 267.92C206.848 268.02 206.825 268.129 206.807 268.241C206.522 269.271 205.573 269.989 204.496 269.989C203.419 269.989 202.491 269.286 202.197 268.276C202.174 268.144 202.147 268.011 202.117 267.879C202.108 267.791 202.102 267.705 202.102 267.614C202.102 267.202 202.206 266.811 202.402 266.463M206.632 266.001L204.49 268.126L202.349 266.001C202.002 266.449 201.8 267.008 201.8 267.614C201.8 267.72 201.806 267.823 201.818 267.926C201.847 268.064 201.877 268.203 201.901 268.341C202.221 269.462 203.259 270.283 204.49 270.283C205.721 270.283 206.783 269.445 207.092 268.303C207.109 268.191 207.133 268.079 207.157 267.97C207.172 267.852 207.18 267.735 207.18 267.614C207.18 267.008 206.979 266.449 206.632 266.001Z" fill="#FEFBF4"/>
<path d="M201.818 267.926C201.835 268.067 201.862 268.206 201.901 268.341C201.877 268.203 201.847 268.064 201.818 267.926Z" fill="#FEFBF4"/>
<path d="M228.655 243.938C228.24 243.475 228.015 242.89 228.015 242.266C228.015 241.642 228.243 241.05 228.658 240.591L230.343 242.263L228.655 243.938Z" fill="#FEFBF4"/>
<path d="M228.667 240.809L230.133 242.263L228.664 243.72C228.338 243.305 228.163 242.799 228.163 242.266C228.163 241.733 228.341 241.221 228.667 240.809ZM228.655 240.379C228.166 240.862 227.866 241.527 227.866 242.266C227.866 243.005 228.166 243.667 228.652 244.149L230.554 242.263L228.655 240.379Z" fill="#FEFBF4"/>
<path d="M227.374 238.899C228.163 239.149 228.973 239.367 229.794 239.55C229.376 239.664 228.988 239.876 228.658 240.171L227.374 238.896V238.899Z" fill="#FEFBF4"/>
<path d="M227.902 239.214C228.359 239.347 228.819 239.47 229.284 239.585C229.065 239.688 228.857 239.817 228.667 239.973L227.902 239.214ZM226.828 238.567L228.655 240.379C229.142 239.897 229.815 239.597 230.557 239.597C230.634 239.597 230.711 239.6 230.788 239.608C229.433 239.349 228.11 239.002 226.828 238.567Z" fill="#FEFBF4"/>
<path d="M228.655 244.355C228.991 244.659 229.388 244.873 229.818 244.985C228.991 245.168 228.169 245.386 227.365 245.636L228.655 244.353V244.355Z" fill="#FEFBF4"/>
<path d="M228.661 244.556C228.857 244.715 229.071 244.85 229.296 244.953C228.822 245.065 228.353 245.191 227.887 245.324L228.661 244.553M228.652 244.149L226.822 245.968C228.163 245.518 229.548 245.162 230.966 244.906C230.833 244.923 230.696 244.935 230.557 244.935C229.812 244.935 229.139 244.635 228.652 244.149Z" fill="#FEFBF4"/>
<path d="M230.557 244.788C229.925 244.788 229.332 244.562 228.866 244.147L230.764 242.263L228.869 240.382C229.335 239.97 229.931 239.744 230.557 239.744C230.628 239.744 230.699 239.744 230.77 239.756C230.93 239.788 231.103 239.82 231.275 239.847C232.342 240.15 233.102 241.148 233.102 242.269C233.102 243.458 232.25 244.494 231.082 244.738L230.942 244.765C230.806 244.782 230.678 244.791 230.56 244.791L230.557 244.788Z" fill="#FEFBF4"/>
<path d="M230.557 239.891C230.628 239.891 230.687 239.891 230.744 239.9C230.907 239.932 231.07 239.962 231.233 239.988C232.247 240.282 232.953 241.215 232.953 242.266C232.953 243.384 232.153 244.361 231.058 244.591C231.011 244.6 230.966 244.609 230.928 244.615C230.791 244.632 230.669 244.641 230.557 244.641C230.017 244.641 229.504 244.464 229.083 244.138L230.972 242.263L229.086 240.391C229.504 240.068 230.017 239.891 230.554 239.891M230.557 239.597C229.815 239.597 229.142 239.897 228.655 240.379L230.554 242.263L228.652 244.149C229.139 244.635 229.812 244.935 230.557 244.935C230.696 244.935 230.833 244.923 230.966 244.906C231.017 244.897 231.064 244.888 231.111 244.879C232.331 244.626 233.25 243.552 233.25 242.266C233.25 241.048 232.425 240.018 231.298 239.7C231.126 239.673 230.957 239.641 230.788 239.608C230.711 239.6 230.634 239.597 230.557 239.597Z" fill="#FEFBF4"/>
<path d="M231.298 239.7C231.126 239.673 230.957 239.641 230.788 239.608C230.963 239.62 231.132 239.653 231.298 239.7Z" fill="#FEFBF4"/>
<path d="M313 243.942H240.963C240.821 243.942 240.752 243.743 240.849 243.639C241.208 243.248 241.429 242.719 241.429 242.135C241.429 241.55 241.208 241.014 240.847 240.621C240.751 240.516 240.82 240.317 240.962 240.317H313V243.942Z" fill="#FEFBF4"/>
<path d="M202.317 351L202.317 278.963C202.317 278.821 202.515 278.752 202.619 278.849C203.01 279.208 203.54 279.429 204.123 279.429C204.708 279.429 205.244 279.208 205.638 278.847C205.742 278.751 205.942 278.82 205.942 278.962L205.942 351L202.317 351Z" fill="#FEFBF4"/>
<path d="M282.818 282.813L284.241 286.467C282.857 287.266 280.96 288.304 278.548 289.582C276.137 290.82 273.923 291.918 271.907 292.877V285.209C273.29 284.53 275.247 283.492 277.777 282.094C280.347 280.696 282.521 279.498 284.3 278.5H290.052V323.864H282.818V282.813Z" fill="#FEFBF4"/>
<path d="M248.253 323.933C244.341 323.933 241.195 323.228 238.816 321.816C236.477 320.364 234.621 318.428 233.25 316.008L239.058 312.197C239.945 314.052 241.155 315.444 242.688 316.371C244.26 317.299 246.116 317.763 248.253 317.763C250.875 317.763 252.952 317.178 254.484 316.008C256.017 314.798 256.783 313.004 256.783 310.624C256.783 308.164 255.936 306.45 254.242 305.482C252.589 304.473 250.189 303.969 247.043 303.969H243.172V298.222H246.499C248.112 298.222 249.604 297.879 250.976 297.194C252.387 296.508 253.496 295.58 254.303 294.411C255.15 293.201 255.573 291.85 255.573 290.357C255.573 288.462 254.928 287.03 253.638 286.062C252.347 285.054 250.572 284.55 248.314 284.55C245.491 284.55 243.474 285.215 242.264 286.546C241.054 287.837 240.51 289.571 240.631 291.749L233.734 292.777C233.532 289.631 234.077 286.99 235.367 284.852C236.658 282.715 238.473 281.122 240.812 280.073C243.151 279.024 245.793 278.5 248.737 278.5C251.52 278.5 253.98 278.964 256.118 279.891C258.296 280.779 259.99 282.049 261.2 283.703C262.41 285.356 263.015 287.292 263.015 289.51C263.015 292.334 262.026 294.794 260.05 296.891C258.114 298.988 255.513 300.319 252.246 300.884L251.581 299.311C254.444 299.351 256.824 299.855 258.719 300.823C260.615 301.751 262.006 303.021 262.894 304.635C263.821 306.248 264.285 308.103 264.285 310.2C264.285 312.499 263.741 314.697 262.652 316.795C261.603 318.852 259.889 320.566 257.509 321.937C255.13 323.268 252.044 323.933 248.253 323.933Z" fill="#FEFBF4"/>
</g>
<defs>
<filter id="filter0_n_1233_5145" x="0" y="0" width="1180" height="601" filterUnits="userSpaceOnUse" color-interpolation-filters="sRGB">
<feFlood flood-opacity="0" result="BackgroundImageFix"/>
<feBlend mode="normal" in="SourceGraphic" in2="BackgroundImageFix" result="shape"/>
<feTurbulence type="fractalNoise" baseFrequency="5 5" stitchTiles="stitch" numOctaves="3" result="noise" seed="5608" />
<feColorMatrix in="noise" type="luminanceToAlpha" result="alphaNoise" />
<feComponentTransfer in="alphaNoise" result="coloredNoise1">
<feFuncA type="discrete" tableValues="1 1 1 1 1 1 1 1 1 1 1 1 1 1 1 1 1 1 1 1 1 1 1 1 1 1 1 1 1 1 1 1 1 1 1 1 1 1 1 1 1 1 1 1 1 1 1 1 1 1 1 0 0 0 0 0 0 0 0 0 0 0 0 0 0 0 0 0 0 0 0 0 0 0 0 0 0 0 0 0 0 0 0 0 0 0 0 0 0 0 0 0 0 0 0 0 0 0 0 0 "/>
</feComponentTransfer>
<feComposite operator="in" in2="shape" in="coloredNoise1" result="noise1Clipped" />
<feFlood flood-color="rgba(0, 0, 0, 0.15)" result="color1Flood" />
<feComposite operator="in" in2="noise1Clipped" in="color1Flood" result="color1" />
<feMerge result="effect1_noise_1233_5145">
<feMergeNode in="shape" />
<feMergeNode in="color1" />
</feMerge>
</filter>
<linearGradient id="paint0_linear_1233_5145" x1="334.825" y1="406.08" x2="1240.85" y2="428.142" gradientUnits="userSpaceOnUse">
<stop stop-color="#5B6BFE"/>
<stop offset="1" stop-color="#7683FE"/>
</linearGradient>
<radialGradient id="paint1_radial_1233_5145" cx="0" cy="0" r="1" gradientTransform="matrix(177.369 263.953 -39.6147 358.696 288.731 178.675)" gradientUnits="userSpaceOnUse">
<stop stop-color="white" stop-opacity="0"/>
<stop offset="1" stop-color="white"/>
</radialGradient>
<clipPath id="clip0_1233_5145">
<rect width="145" height="145" fill="white" transform="translate(168 206)"/>
</clipPath>
<pattern id="pattern0_1233_5145" patternUnits="userSpaceOnUse" patternTransform="matrix(109.698 0 0 109.698 0 0)" preserveAspectRatio="none" viewBox="0 0 50.32 50.32" width="1" height="1">
<use xlink:href="#pattern0_1233_5145_inner" transform="translate(-50.32 -50.32)"/>
<use xlink:href="#pattern0_1233_5145_inner" transform="translate(0 -50.32)"/>
<use xlink:href="#pattern0_1233_5145_inner" transform="translate(-50.32 0)"/>
<g id="pattern0_1233_5145_inner">
<rect x="74" width="24.6667" height="24.6667" transform="rotate(90 74 0)" fill="white"/>
<rect x="74" y="49.3333" width="24.6667" height="24.6667" transform="rotate(90 74 49.3333)" fill="white"/>
<rect x="24.6667" width="24.6667" height="24.6667" transform="rotate(90 24.6667 0)" fill="white"/>
<rect x="24.6667" y="49.3333" width="24.6667" height="24.6667" transform="rotate(90 24.6667 49.3333)" fill="white"/>
<rect x="49.3333" y="24.6667" width="24.6667" height="24.6667" transform="rotate(90 49.3333 24.6667)" fill="white"/>
</g>
</pattern></defs>
</svg>
