<svg width="134" height="20" viewBox="0 0 134 20" fill="none" xmlns="http://www.w3.org/2000/svg">
<g clip-path="url(#clip0_1106_134)">
<path d="M18.0769 0C19.139 0 20 0.860991 20 1.92308V18.0769C20 19.139 19.139 20 18.0769 20H1.92308C0.860991 20 0 19.139 0 18.0769V1.92308C0 0.860991 0.860991 0 1.92308 0H18.0769Z" fill="#151514"/>
<path d="M5.33017 8.24581C5.25571 8.15935 5.14893 8.11023 5.03315 8.11023C4.91736 8.11023 4.81058 8.15935 4.73612 8.24581L4.55529 8.06639C4.14739 6.86483 3.1794 5.90439 1.9643 5.49562L1.72865 5.2618C1.7937 5.19076 1.82929 5.09902 1.82929 5.002C1.82929 4.90499 1.7937 4.81325 1.72865 4.74221L1.96471 4.50798C3.16426 4.10043 4.12489 3.1477 4.53565 1.95751L4.7709 1.7241C4.8429 1.78864 4.93536 1.82396 5.03274 1.82396C5.13011 1.82396 5.22257 1.78864 5.29458 1.7241L5.53064 1.95832C5.9414 3.14892 6.90244 4.10246 8.1024 4.51001L8.33683 4.74261C8.27177 4.81365 8.23618 4.90539 8.23618 5.00241C8.23618 5.09943 8.27177 5.19076 8.33642 5.2618L8.10158 5.49521C6.88893 5.90236 5.92135 6.86239 5.511 8.06558L5.32935 8.24581H5.33017Z" fill="#FEFBF4"/>
<path d="M4.77212 1.7513C4.84577 1.81137 4.937 1.84385 5.03315 1.84385C5.12929 1.84385 5.22052 1.81137 5.29417 1.7513L5.51346 1.96888C5.92667 3.16191 6.88975 4.11707 8.09217 4.52747L8.30982 4.74343C8.24927 4.81609 8.21654 4.90661 8.21654 5.00241C8.21654 5.09821 8.24927 5.18792 8.30941 5.26099L8.09135 5.47776C6.87666 5.88734 5.90663 6.8494 5.49423 8.05462L5.33099 8.21658C5.25366 8.1358 5.14729 8.08993 5.03315 8.08993C4.919 8.08993 4.81263 8.1354 4.7353 8.21658L4.57288 8.05543C4.36832 7.45506 4.01974 6.90136 3.5648 6.45443C3.11844 6.01602 2.56899 5.6787 1.97535 5.47816L1.75647 5.26099C1.81702 5.18833 1.84975 5.09781 1.84975 5.002C1.84975 4.9062 1.81702 4.81568 1.75647 4.74302L1.97576 4.52544C3.17777 4.11545 4.14003 3.16069 4.55365 1.96806L4.77212 1.7513ZM5.2954 1.69528C5.2283 1.76185 5.13543 1.80326 5.03315 1.80326C4.93086 1.80326 4.83799 1.76185 4.7709 1.69528L4.51806 1.94614C4.10771 3.13918 3.15567 4.08338 1.95366 4.49012L1.70001 4.7418C1.76752 4.80837 1.80883 4.90052 1.80883 5.002C1.80883 5.10349 1.76752 5.19563 1.70001 5.26221L1.95326 5.51348C3.14503 5.91292 4.1208 6.84575 4.53729 8.07735L4.73776 8.27626C4.80526 8.18776 4.91245 8.13053 5.03315 8.13053C5.15384 8.13053 5.26103 8.18776 5.32853 8.27626L5.52982 8.07654C5.93895 6.87173 6.89957 5.91901 8.11344 5.51307L8.36587 5.26221C8.29878 5.19563 8.25745 5.10389 8.25745 5.00241C8.25745 4.90093 8.29878 4.80878 8.36628 4.74221L8.11426 4.49215C6.91143 4.085 5.9594 3.1404 5.54905 1.94696L5.2954 1.69528Z" fill="#FEFBF4"/>
<path d="M4.65348 8.40251C4.63261 8.31808 4.60888 8.23405 4.58311 8.15165L4.71076 8.2783C4.68416 8.31605 4.66493 8.35786 4.65348 8.40251Z" fill="#FEFBF4"/>
<path d="M4.62647 8.22309L4.68457 8.28073C4.67393 8.29697 4.66452 8.31443 4.65675 8.33188C4.64693 8.29535 4.63711 8.25922 4.62647 8.22309ZM4.53729 8.07735C4.58843 8.22795 4.63098 8.38262 4.66452 8.54175C4.66289 8.52754 4.66207 8.51333 4.66207 8.49872C4.66207 8.4151 4.68989 8.33796 4.73776 8.27626L4.53729 8.07735Z" fill="#FEFBF4"/>
<path d="M5.03315 1.78297C4.94641 1.78297 4.86458 1.75172 4.80035 1.69488L5.03315 1.46391L5.26593 1.69488C5.2017 1.75172 5.11947 1.78297 5.03315 1.78297Z" fill="#FEFBF4"/>
<path d="M5.03315 1.49232L5.23566 1.69326C5.17797 1.73791 5.1072 1.76227 5.03315 1.76227C4.95909 1.76227 4.88831 1.73791 4.83063 1.69326L5.03315 1.49232ZM5.03315 1.43509L4.7709 1.69528C4.83799 1.76185 4.93086 1.80326 5.03315 1.80326C5.13543 1.80326 5.2283 1.76185 5.2954 1.69528L5.03315 1.43509Z" fill="#FEFBF4"/>
<path d="M4.56429 1.87146C4.59948 1.76186 4.62975 1.65023 4.65552 1.5386C4.67148 1.59624 4.70094 1.64982 4.74226 1.69488L4.56429 1.87146Z" fill="#FEFBF4"/>
<path d="M4.66002 1.60882C4.67434 1.63927 4.69275 1.66768 4.71444 1.69407L4.60806 1.79961C4.62688 1.73628 4.64407 1.67296 4.66002 1.60882ZM4.66411 1.39895C4.62811 1.58609 4.57902 1.76875 4.51806 1.94614L4.7709 1.69528C4.70339 1.6287 4.66207 1.53697 4.66207 1.43508C4.66207 1.42291 4.66248 1.41073 4.66411 1.39895Z" fill="#FEFBF4"/>
<path d="M5.32403 1.69488C5.36576 1.64942 5.39522 1.59543 5.41118 1.53657C5.43695 1.64982 5.46764 1.76186 5.50282 1.87187L5.32403 1.69447V1.69488Z" fill="#FEFBF4"/>
<path d="M5.40709 1.6076C5.42304 1.67215 5.44022 1.73669 5.45945 1.80042L5.35226 1.69407C5.37435 1.66768 5.39277 1.63846 5.40709 1.6076ZM5.40136 1.38881C5.4034 1.40383 5.40422 1.41925 5.40422 1.43508C5.40422 1.53697 5.3629 1.6287 5.2954 1.69528L5.54905 1.94696C5.48686 1.76632 5.43736 1.58 5.40136 1.38881Z" fill="#FEFBF4"/>
<path d="M5.03315 1.40625L4.7713 1.66605C4.71403 1.60273 4.68252 1.52113 4.68252 1.43508C4.68252 1.42371 4.68252 1.41275 4.68416 1.40179V1.39814C4.68907 1.37865 4.69235 1.35876 4.69603 1.33928C4.73776 1.19152 4.87686 1.0876 5.03315 1.0876C5.18943 1.0876 5.33099 1.19355 5.3719 1.34496V1.35105L5.37435 1.35348C5.37722 1.36607 5.37967 1.37865 5.38131 1.39164C5.38295 1.40504 5.38417 1.41924 5.38417 1.43548C5.38417 1.52194 5.35267 1.60313 5.2954 1.66646L5.03355 1.40666L5.03315 1.40625Z" fill="#FEFBF4"/>
<path d="M5.03315 1.10749C5.18207 1.10749 5.31258 1.20613 5.35145 1.3478V1.35957L5.35554 1.36322C5.35758 1.37337 5.35963 1.38352 5.36085 1.39408C5.36249 1.40625 5.36331 1.41965 5.36331 1.43508C5.36331 1.50896 5.33876 1.57918 5.29376 1.63601L5.03315 1.37743L4.77253 1.63601C4.72753 1.57878 4.70298 1.50896 4.70298 1.43508C4.70298 1.42209 4.70339 1.41275 4.70462 1.40463V1.40179C4.70871 1.38271 4.71198 1.36404 4.71525 1.34496C4.75576 1.20532 4.88586 1.1083 5.03233 1.1083M5.03315 1.06689C4.86295 1.06689 4.71976 1.18056 4.67598 1.33522C4.6723 1.35592 4.66861 1.37662 4.66411 1.39732C4.66411 1.39773 4.66371 1.39855 4.66411 1.39895C4.66248 1.41073 4.66207 1.42291 4.66207 1.43508C4.66207 1.53697 4.70339 1.6287 4.7709 1.69528L5.03315 1.43509L5.2954 1.69528C5.3629 1.6287 5.40422 1.53697 5.40422 1.43508C5.40422 1.41925 5.4034 1.40383 5.40136 1.38881C5.39931 1.37297 5.39645 1.35795 5.39277 1.34293C5.39277 1.34293 5.39263 1.34266 5.39236 1.34212C5.35104 1.1838 5.2058 1.06689 5.03315 1.06689Z" fill="#FEFBF4"/>
<path d="M4.67598 1.33522C4.67025 1.35511 4.66616 1.37622 4.66411 1.39732C4.66861 1.37662 4.6723 1.35592 4.67598 1.33522Z" fill="#FEFBF4"/>
<path d="M1.46681 5.00202L1.6996 4.77104C1.75688 4.83437 1.78838 4.91596 1.78838 5.00202C1.78838 5.08808 1.75688 5.16967 1.6996 5.23299L1.46681 5.00202Z" fill="#FEFBF4"/>
<path d="M1.69837 4.80108C1.74338 4.85832 1.76792 4.92814 1.76792 5.00202C1.76792 5.0759 1.74338 5.14612 1.69837 5.20295L1.49586 5.00202L1.69837 4.80108ZM1.70001 4.7418L1.43776 5.00202L1.70001 5.26221C1.76752 5.19563 1.80883 5.10349 1.80883 5.002C1.80883 4.90052 1.76752 4.80837 1.70001 4.7418Z" fill="#FEFBF4"/>
<path d="M1.6996 4.71339C1.65378 4.67199 1.59936 4.64276 1.54086 4.62693C1.6546 4.60135 1.76751 4.57091 1.87839 4.536L1.6996 4.71339Z" fill="#FEFBF4"/>
<path d="M1.80556 4.57943L1.69837 4.68579C1.67178 4.66387 1.64273 4.6456 1.61164 4.63139C1.67669 4.61556 1.74133 4.59851 1.80556 4.57943ZM1.95366 4.49012C1.77283 4.55142 1.58627 4.60054 1.3948 4.63626C1.40912 4.63464 1.42344 4.63383 1.43776 4.63383C1.54004 4.63383 1.63291 4.67482 1.70001 4.7418L1.95366 4.49012Z" fill="#FEFBF4"/>
<path d="M1.87839 5.46761C1.7667 5.4327 1.65337 5.40226 1.53963 5.37709C1.59895 5.36126 1.65337 5.33203 1.6996 5.29022L1.87839 5.46761Z" fill="#FEFBF4"/>
<path d="M1.69878 5.31823L1.80597 5.42459C1.74133 5.40591 1.67669 5.38846 1.61123 5.37303C1.64232 5.35882 1.67178 5.34015 1.69878 5.31823ZM1.70001 5.26221C1.63291 5.32919 1.54004 5.37019 1.43776 5.37019C1.41853 5.37019 1.39971 5.36857 1.3813 5.36613C1.57645 5.40145 1.76751 5.45097 1.95326 5.51348L1.70001 5.26221Z" fill="#FEFBF4"/>
<path d="M1.43776 5.3499C1.42139 5.3499 1.4038 5.34868 1.38416 5.34584C1.37802 5.34462 1.37107 5.34381 1.36452 5.34218C1.20374 5.30768 1.08755 5.16479 1.08755 5.00201C1.08755 4.83923 1.19474 4.70609 1.34816 4.66549C1.36411 4.66306 1.38171 4.65981 1.3993 4.65616C1.41116 4.65494 1.42467 4.65413 1.43817 4.65413C1.52531 4.65413 1.60714 4.68538 1.67096 4.74221L1.40912 5.00201L1.67096 5.26181C1.60714 5.31864 1.5249 5.3499 1.43817 5.3499H1.43776Z" fill="#FEFBF4"/>
<path d="M1.43776 4.67442C1.51222 4.67442 1.583 4.69878 1.64027 4.74343L1.37966 5.00201L1.64027 5.26059C1.58259 5.30524 1.51222 5.3296 1.43776 5.3296C1.42221 5.3296 1.40544 5.32838 1.38785 5.32595C1.3813 5.32473 1.37516 5.32392 1.36821 5.32229C1.21724 5.29022 1.10759 5.15545 1.10759 5.00201C1.10759 4.84857 1.20742 4.72435 1.35103 4.68579C1.3678 4.68295 1.38416 4.68011 1.40135 4.67645C1.41362 4.67524 1.42589 4.67442 1.43776 4.67442ZM1.43776 4.63383C1.42344 4.63383 1.40912 4.63464 1.3948 4.63626C1.37721 4.63992 1.36003 4.64317 1.34244 4.64601C1.1837 4.68782 1.06668 4.83152 1.06668 5.00201C1.06668 5.1725 1.19228 5.32635 1.35962 5.36207C1.36657 5.3637 1.37394 5.36491 1.3813 5.36613C1.39971 5.36857 1.41853 5.37019 1.43776 5.37019C1.54004 5.37019 1.63291 5.32919 1.70001 5.26221L1.43776 5.00202L1.70001 4.7418C1.63291 4.67482 1.54004 4.63383 1.43776 4.63383Z" fill="#FEFBF4"/>
<path d="M4.76517 8.27465C4.83185 8.19549 4.92841 8.15084 5.03315 8.15084C5.13788 8.15084 5.23443 8.1959 5.30112 8.27465L5.03315 8.54053L4.76517 8.27465Z" fill="#FEFBF4"/>
<path d="M5.03315 8.17113C5.1252 8.17113 5.21111 8.20807 5.27289 8.27383L5.03315 8.51171L4.7934 8.27383C4.85559 8.20807 4.94109 8.17113 5.03315 8.17113ZM5.03315 8.13053C4.91245 8.13053 4.80526 8.18776 4.73776 8.27626L5.03315 8.56935L5.32853 8.27626C5.26103 8.18776 5.15384 8.13053 5.03315 8.13053Z" fill="#FEFBF4"/>
<path d="M5.41281 8.40292C5.40136 8.35826 5.38213 8.31605 5.35554 8.27829L5.484 8.15083C5.45782 8.23324 5.43409 8.31767 5.41322 8.40292H5.41281Z" fill="#FEFBF4"/>
<path d="M5.44063 8.22268C5.42999 8.25922 5.41977 8.29575 5.40995 8.33269C5.40176 8.31483 5.39236 8.29778 5.38172 8.28114L5.44063 8.22268ZM5.52982 8.07654L5.32853 8.27626C5.3764 8.33796 5.40422 8.41509 5.40422 8.49872C5.40422 8.51536 5.40299 8.5316 5.40095 8.54783C5.4345 8.38709 5.47746 8.22958 5.52982 8.07654Z" fill="#FEFBF4"/>
<path d="M5.03315 8.8466C4.87686 8.8466 4.73817 8.74268 4.69562 8.5933C4.69275 8.57625 4.68866 8.55676 4.68457 8.53728C4.68334 8.52591 4.68252 8.51211 4.68252 8.49831C4.68252 8.42889 4.70257 8.36354 4.74021 8.30711L5.03315 8.59776L5.32608 8.30711C5.36413 8.36354 5.38376 8.42889 5.38376 8.49831C5.38376 8.51333 5.38295 8.52835 5.38049 8.54499C5.37763 8.55879 5.37395 8.57462 5.37149 8.59045C5.33099 8.74024 5.19148 8.8466 5.03274 8.8466H5.03315Z" fill="#FEFBF4"/>
<path d="M4.7443 8.33999L5.03355 8.62699L5.3228 8.33999C5.34981 8.38789 5.36413 8.44188 5.36413 8.49871C5.36413 8.51211 5.36331 8.52591 5.36126 8.54093C5.3584 8.55473 5.35512 8.56975 5.35267 8.58518C5.31339 8.72725 5.18248 8.8263 5.03396 8.8263C4.88545 8.8263 4.7574 8.72928 4.71689 8.59005C4.71362 8.57178 4.70994 8.55351 4.70585 8.53525C4.70462 8.52307 4.7038 8.5113 4.7038 8.49871C4.7038 8.44188 4.71812 8.38789 4.74512 8.33999M5.32853 8.27626L5.03315 8.56935L4.73776 8.27626C4.68989 8.33796 4.66207 8.4151 4.66207 8.49872C4.66207 8.51333 4.66289 8.52754 4.66452 8.54175C4.66862 8.56083 4.67271 8.5799 4.67598 8.59898C4.72017 8.75364 4.86336 8.86689 5.03315 8.86689C5.20293 8.86689 5.3494 8.7512 5.39195 8.5937C5.3944 8.57828 5.39768 8.56285 5.40095 8.54783C5.40299 8.5316 5.40422 8.51536 5.40422 8.49872C5.40422 8.41509 5.3764 8.33796 5.32853 8.27626Z" fill="#FEFBF4"/>
<path d="M4.66452 8.54175C4.66698 8.56123 4.67066 8.58031 4.67598 8.59898C4.67271 8.5799 4.66862 8.56083 4.66452 8.54175Z" fill="#FEFBF4"/>
<path d="M8.36628 5.23298C8.309 5.16925 8.27791 5.08847 8.27791 5.00241C8.27791 4.91636 8.30941 4.83476 8.36669 4.77144L8.59908 5.00201L8.36628 5.23298Z" fill="#FEFBF4"/>
<path d="M8.36792 4.80148L8.57002 5.00201L8.36751 5.20294C8.32251 5.14571 8.29837 5.07589 8.29837 5.00241C8.29837 4.92894 8.32292 4.85831 8.36792 4.80148ZM8.36628 4.74221C8.29878 4.80878 8.25745 4.90052 8.25745 5.00241C8.25745 5.1043 8.29878 5.19563 8.36587 5.26221L8.62812 5.00201L8.36628 4.74221Z" fill="#FEFBF4"/>
<path d="M8.18954 4.53804C8.29837 4.57254 8.41006 4.60258 8.52338 4.62775C8.4657 4.64358 8.4121 4.67281 8.36669 4.7134L8.18954 4.53763V4.53804Z" fill="#FEFBF4"/>
<path d="M8.26236 4.58147C8.32537 4.59974 8.38878 4.61679 8.45302 4.63262C8.42274 4.64683 8.3941 4.66469 8.36792 4.68621L8.26236 4.58147ZM8.11426 4.49215L8.36628 4.74221C8.43338 4.67564 8.52625 4.63425 8.62853 4.63425C8.63917 4.63425 8.64981 4.63465 8.66044 4.63587C8.47347 4.60015 8.291 4.55223 8.11426 4.49215Z" fill="#FEFBF4"/>
<path d="M8.36628 5.29063C8.41251 5.33244 8.46734 5.36207 8.52666 5.3775C8.41251 5.40267 8.29919 5.4327 8.18831 5.46721L8.36628 5.29022V5.29063Z" fill="#FEFBF4"/>
<path d="M8.3671 5.31823C8.3941 5.34015 8.42356 5.35882 8.45465 5.37303C8.38919 5.38846 8.32455 5.40591 8.26032 5.42418L8.3671 5.31783M8.36587 5.26221L8.11344 5.51307C8.29837 5.45097 8.48943 5.40185 8.68499 5.36654C8.66658 5.36897 8.64776 5.3706 8.62853 5.3706C8.52584 5.3706 8.43297 5.32919 8.36587 5.26221Z" fill="#FEFBF4"/>
<path d="M8.62853 5.35031C8.54139 5.35031 8.45956 5.31905 8.39533 5.26182L8.65717 5.00202L8.39574 4.74263C8.45997 4.6858 8.54221 4.65454 8.62853 4.65454C8.63835 4.65454 8.64817 4.65454 8.65799 4.65617C8.68008 4.66063 8.70381 4.6651 8.72754 4.66875C8.87482 4.71056 8.97956 4.84817 8.97956 5.00283C8.97956 5.16683 8.86214 5.30972 8.70095 5.34341L8.68171 5.34706C8.66289 5.3495 8.64531 5.35072 8.62894 5.35072L8.62853 5.35031Z" fill="#FEFBF4"/>
<path d="M8.62853 4.67484C8.63835 4.67484 8.64653 4.67484 8.65431 4.67606C8.67681 4.68052 8.69931 4.68458 8.72181 4.68823C8.86173 4.72883 8.9591 4.85751 8.9591 5.00243C8.9591 5.15668 8.84864 5.29145 8.69767 5.32311C8.69112 5.32433 8.68499 5.32555 8.67967 5.32636C8.66085 5.3288 8.64408 5.33001 8.62853 5.33001C8.55407 5.33001 8.48329 5.30566 8.4252 5.2606L8.68581 5.00202L8.4256 4.74385C8.48329 4.69919 8.55407 4.67484 8.62812 4.67484M8.62853 4.63425C8.52625 4.63425 8.43338 4.67564 8.36628 4.74221L8.62812 5.00201L8.36587 5.26221C8.43297 5.32919 8.52584 5.3706 8.62853 5.3706C8.64776 5.3706 8.66658 5.36897 8.68499 5.36654C8.69195 5.36532 8.69849 5.36411 8.70504 5.36289C8.87319 5.32798 9.00001 5.17982 9.00001 5.00243C9.00001 4.83437 8.88628 4.69229 8.73081 4.64845C8.70708 4.6448 8.68376 4.64034 8.66044 4.63587C8.64981 4.63465 8.63917 4.63425 8.62853 4.63425Z" fill="#FEFBF4"/>
<path d="M8.73081 4.64845C8.70708 4.6448 8.68376 4.64034 8.66044 4.63587C8.68458 4.63749 8.7079 4.64196 8.73081 4.64845Z" fill="#FEFBF4"/>
<path d="M20 5.2334H10.2915C10.2019 5.2334 10.1282 5.07379 10.1282 4.98418C10.1282 4.89424 10.2028 4.7334 10.2927 4.7334H20V5.2334Z" fill="#FEFBF4"/>
<path d="M4.73334 20L4.73334 10.2915C4.73334 10.2019 4.89294 10.1282 4.98256 10.1282C5.07249 10.1282 5.23334 10.2028 5.23334 10.2927L5.23334 20L4.73334 20Z" fill="#FEFBF4"/>
<path d="M15.8369 10.5949L16.0332 11.0989C15.8424 11.2091 15.5807 11.3523 15.248 11.5286C14.9154 11.6993 14.6101 11.8508 14.332 11.983V10.9254C14.5228 10.8318 14.7927 10.6885 15.1417 10.4957C15.4961 10.303 15.796 10.1377 16.0414 10H16.8348V16.2571H15.8369V10.5949Z" fill="#FEFBF4"/>
<path d="M11.0694 16.2667C10.5298 16.2667 10.0959 16.1693 9.76769 15.9746C9.44504 15.7743 9.18914 15.5073 9 15.1735L9.80106 14.6478C9.92345 14.9037 10.0903 15.0957 10.3017 15.2236C10.5187 15.3516 10.7746 15.4155 11.0694 15.4155C11.431 15.4155 11.7175 15.3349 11.9289 15.1735C12.1403 15.0067 12.246 14.7591 12.246 14.4309C12.246 14.0916 12.1292 13.8551 11.8955 13.7216C11.6674 13.5825 11.3364 13.513 10.9025 13.513H10.3685V12.7203H10.8274C11.0499 12.7203 11.2558 12.673 11.4449 12.5784C11.6396 12.4839 11.7926 12.3559 11.9039 12.1946C12.0207 12.0277 12.0791 11.8413 12.0791 11.6355C12.0791 11.374 11.9901 11.1766 11.8121 11.0431C11.6341 10.904 11.3893 10.8344 11.0778 10.8344C10.6884 10.8344 10.4102 10.9262 10.2433 11.1098C10.0764 11.2878 10.0013 11.527 10.018 11.8274L9.06676 11.9693C9.03894 11.5354 9.11404 11.171 9.29205 10.8762C9.47007 10.5813 9.7204 10.3616 10.0431 10.217C10.3657 10.0723 10.7301 10 11.1362 10C11.52 10 11.8594 10.064 12.1542 10.1919C12.4546 10.3143 12.6882 10.4895 12.8551 10.7176C13.022 10.9457 13.1055 11.2127 13.1055 11.5187C13.1055 11.9081 12.9692 12.2474 12.6966 12.5367C12.4296 12.826 12.0707 13.0096 11.6201 13.0874L11.5284 12.8705C11.9233 12.876 12.2515 12.9456 12.513 13.0791C12.7745 13.207 12.9664 13.3823 13.0888 13.6048C13.2167 13.8273 13.2807 14.0832 13.2807 14.3725C13.2807 14.6896 13.2056 14.9928 13.0554 15.282C12.9108 15.5657 12.6743 15.8022 12.3461 15.9913C12.0179 16.1749 11.5923 16.2667 11.0694 16.2667Z" fill="#FEFBF4"/>
</g>
<path d="M120.358 7.83L120.351 14.368C120.351 14.7152 120.429 14.9672 120.587 15.124C120.755 15.2696 121.036 15.3424 121.429 15.3424H122.609V16.9384H121.092C120.227 16.9384 119.564 16.7368 119.104 16.3336C118.643 15.9304 118.413 15.2752 118.413 14.368L118.413 7.83H117.317L117.333 6.36H118.428L118.469 3H120.407L120.366 6.36H122.625L122.617 7.83H120.358Z" fill="#151514"/>
<path d="M105.521 11.6331C105.521 10.5984 105.734 9.68214 106.162 8.88429C106.602 8.08645 107.193 7.46937 107.934 7.03304C108.689 6.58426 109.518 6.35986 110.423 6.35986C111.241 6.35986 111.951 6.52193 112.554 6.84605C113.17 7.15771 113.661 7.5504 114.025 8.02412V6.35986H116.194V16.8316H114.025V15.2982C113.661 15.7844 113.164 16.1896 112.535 16.5137C111.907 16.8378 111.19 16.9999 110.386 16.9999C109.493 16.9999 108.676 16.7755 107.934 16.3267C107.193 15.8654 106.602 15.2296 106.162 14.4193C105.734 13.5966 105.521 12.6678 105.521 11.6331ZM114.025 11.6705C114.025 10.9599 113.874 10.3429 113.573 9.81927C113.283 9.29568 112.9 8.89676 112.422 8.6225C111.945 8.34824 111.429 8.21111 110.876 8.21111C110.323 8.21111 109.807 8.34824 109.33 8.6225C108.852 8.88429 108.462 9.27698 108.161 9.80057C107.871 10.3117 107.727 10.9225 107.727 11.6331C107.727 12.3437 107.871 12.967 108.161 13.5031C108.462 14.0391 108.852 14.4505 109.33 14.7372C109.82 15.0115 110.335 15.1486 110.876 15.1486C111.429 15.1486 111.945 15.0115 112.422 14.7372C112.9 14.463 113.283 14.064 113.573 13.5405C113.874 13.0044 114.025 12.3811 114.025 11.6705Z" fill="#151514"/>
<path d="M100.047 6.35986C100.877 6.35986 101.618 6.53086 102.27 6.87286C102.934 7.21486 103.452 7.72153 103.822 8.39286C104.205 9.0642 104.397 9.87486 104.397 10.8249V16.9999H102.231V11.1479C102.231 10.2105 101.995 9.49486 101.522 9.00086C101.05 8.4942 100.404 8.24086 99.5868 8.24086C98.7691 8.24086 98.1175 8.4942 97.632 9.00086C97.1593 9.49486 96.9229 10.2105 96.9229 11.1479V16.9999H94.7573V11.1479C94.7573 10.2105 94.5209 9.49486 94.0482 9.00086C93.5755 8.4942 92.9303 8.24086 92.1126 8.24086C91.2949 8.24086 90.6433 8.4942 90.1578 9.00086C89.685 9.49486 89.4487 10.2105 89.4487 11.1479V16.9999H87.2639V6.35986H89.4487V7.72786C89.8064 7.2972 90.26 6.96153 90.8094 6.72086C91.3588 6.4802 91.9465 6.35986 92.5725 6.35986C93.4158 6.35986 94.1696 6.5372 94.8339 6.89186C95.4983 7.24653 96.0094 7.75953 96.3671 8.43086C96.6865 7.79753 97.1848 7.2972 97.862 6.92986C98.5391 6.54986 99.2674 6.35986 100.047 6.35986Z" fill="#151514"/>
<path d="M79.9964 12.1615L84.4552 17H81.7518L78.1707 12.8301V17H76.1695V3H78.1707V11.5457L81.6816 6.36H84.4552L79.9964 12.1615Z" fill="#151514"/>
<path d="M64.7942 11.6705C64.7942 10.6109 65.0108 9.68214 65.4439 8.88429C65.8898 8.07398 66.5013 7.45067 67.2785 7.01434C68.0556 6.57802 68.9474 6.35986 69.9538 6.35986C71.2278 6.35986 72.2788 6.65905 73.1069 7.25744C73.9478 7.84335 75.2369 9.50986 75.0223 10.8399H72.6718C72.6718 9.43986 71.9603 8.87183 71.5399 8.5851C71.1195 8.29837 70.5908 8.15501 69.9538 8.15501C69.062 8.15501 68.3486 8.46667 67.8135 9.08999C67.2912 9.70084 67.03 10.561 67.03 11.6705C67.03 12.78 67.2912 13.6464 67.8135 14.2697C68.3486 14.8931 69.062 15.2047 69.9538 15.2047C71.2151 15.2047 71.9863 14.8644 72.394 13.7799H74.7445C74.4388 14.827 73.9286 15.4603 73.0878 16.0836C72.247 16.6944 71.2023 16.9999 69.9538 16.9999C68.9474 16.9999 68.0556 16.7817 67.2785 16.3454C66.5013 15.8966 65.8898 15.2733 65.4439 14.4754C65.0108 13.6651 64.7942 12.7301 64.7942 11.6705Z" fill="#151514"/>
<path d="M63.6707 11.4274C63.6707 11.8139 63.6644 12.3499 63.6141 12.6616H55.6656C55.7285 13.4844 56.018 13.9581 56.5718 14.4567C57.1256 14.9554 57.8053 15.2047 58.6109 15.2047C59.7688 15.2047 60.587 14.7248 61.0653 13.7649H63.3875C63.0728 14.7123 62.5001 15.4914 61.6694 16.1023C60.8513 16.7007 59.8318 16.9999 58.6109 16.9999C57.6165 16.9999 56.7229 16.7817 55.9299 16.3454C55.1495 15.8966 54.5328 15.2733 54.0797 14.4754C53.6391 13.6651 53.4189 12.7301 53.4189 11.6705C53.4189 10.6109 53.6329 9.68214 54.0608 8.88429C54.5013 8.07398 55.1118 7.45067 55.8922 7.01434C56.6851 6.57802 57.5914 6.35986 58.6109 6.35986C59.5926 6.35986 60.4674 6.57179 61.2352 6.99565C62.003 7.4195 62.6008 8.01788 63.0288 8.79079C63.4567 9.55124 63.6707 10.4301 63.6707 11.4274ZM61.424 10.8399C61.4114 10.0545 61.1282 9.33931 60.5744 8.86559C60.0206 8.39187 59.3346 8.15501 58.5165 8.15501C57.7739 8.15501 57.1382 8.39187 56.6096 8.86559C56.081 9.32685 55.7663 10.042 55.6656 10.8399H61.424Z" fill="#151514"/>
<path d="M134 11.4274C134 11.8139 133.994 12.3499 133.943 12.6616H125.995C126.058 13.4844 126.347 13.9581 126.901 14.4567C127.455 14.9554 128.135 15.2047 128.94 15.2047C130.098 15.2047 130.916 14.7248 131.395 13.7649H133.717C133.402 14.7123 132.829 15.4914 131.999 16.1023C131.181 16.7007 130.161 16.9999 128.94 16.9999C127.946 16.9999 127.052 16.7817 126.259 16.3454C125.479 15.8966 124.862 15.2733 124.409 14.4754C123.968 13.6651 123.748 12.7301 123.748 11.6705C123.748 10.6109 123.962 9.68214 124.39 8.88429C124.831 8.07398 125.441 7.45067 126.221 7.01434C127.014 6.57802 127.921 6.35986 128.94 6.35986C129.922 6.35986 130.797 6.57179 131.564 6.99565C132.332 7.4195 132.93 8.01788 133.358 8.79079C133.786 9.55124 134 10.4301 134 11.4274ZM131.753 10.8399C131.741 10.0545 131.457 9.33931 130.904 8.86559C130.35 8.39187 129.664 8.15501 128.846 8.15501C128.103 8.15501 127.468 8.39187 126.939 8.86559C126.41 9.32685 126.096 10.042 125.995 10.8399H131.753Z" fill="#151514"/>
<path d="M48.1459 6.40541C48.9417 6.40541 49.649 6.57568 50.268 6.91622C50.8996 7.25676 51.3922 7.76126 51.7459 8.42973C52.1122 9.0982 52.2954 9.9054 52.2954 10.8514V17H50.1543V11.173C50.1543 10.2396 49.9206 9.52703 49.4532 9.03513C48.9859 8.53063 48.348 8.27838 47.5395 8.27838C46.7311 8.27838 46.0869 8.53063 45.6069 9.03513C45.1395 9.52703 44.9058 10.2396 44.9058 11.173V17H42.7458V3H44.9058V7.78649C45.2721 7.34504 45.7332 7.0045 46.289 6.76486C46.8574 6.52523 47.4764 6.40541 48.1459 6.40541Z" fill="#151514"/>
<path d="M28 10C28 8.65915 28.3148 7.45634 28.9443 6.39155C29.5873 5.32676 30.4512 4.49859 31.5362 3.90704C32.6345 3.30235 33.8333 3 35.1326 3C36.6194 3 37.9388 3.3615 39.0907 4.08451C40.256 4.79437 41.0999 5.88545 41.6223 7.2H38.8697C38.508 6.477 38.0057 5.85916 37.3628 5.50423C36.7199 5.1493 35.9765 4.97183 35.1326 4.97183C34.2084 4.97183 33.3846 5.17559 32.6613 5.5831C31.938 5.99061 31.3687 6.57559 30.9535 7.33803C30.5517 8.10047 30.3507 8.98779 30.3507 10C30.3507 11.0122 30.5517 11.8995 30.9535 12.662C31.3687 13.4244 31.938 14.016 32.6613 14.4366C33.3846 14.8441 34.2084 15.0479 35.1326 15.0479C35.9765 15.0479 36.7199 14.8704 37.3628 14.5155C38.0057 14.1606 38.508 13.523 38.8697 12.8H41.6223C41.0999 14.1146 40.256 15.2254 39.0907 15.9352C37.9388 16.6451 36.6194 17 35.1326 17C33.8199 17 32.6211 16.7042 31.5362 16.1127C30.4512 15.508 29.5873 14.6732 28.9443 13.6084C28.3148 12.5437 28 11.3408 28 10Z" fill="#151514"/>
<defs>
<clipPath id="clip0_1106_134">
<rect width="20" height="20" fill="white"/>
</clipPath>
</defs>
</svg>
