<svg width="165" height="32" viewBox="0 0 165 32" fill="none" xmlns="http://www.w3.org/2000/svg">
<g clip-path="url(#clip0_1106_212)">
<path d="M28.9231 0C30.6224 0 32 1.37759 32 3.07692V28.9231C32 30.6224 30.6224 32 28.9231 32H3.07692C1.37759 32 0 30.6224 0 28.9231V3.07692C0 1.37759 1.37759 0 3.07692 0H28.9231Z" fill="#FEFBF4"/>
<path d="M8.52825 13.1929C8.40911 13.0546 8.23826 12.976 8.05301 12.976C7.86776 12.976 7.69691 13.0546 7.57777 13.1929L7.28843 12.9059C6.6358 10.9834 5.08702 9.44666 3.14286 8.79262L2.76581 8.41852C2.86989 8.30486 2.92684 8.15807 2.92684 8.00284C2.92684 7.84761 2.86989 7.70083 2.76581 7.58717L3.14351 7.21241C5.0628 6.56032 6.5998 5.03596 7.25701 3.13165L7.63341 2.75819C7.74862 2.86146 7.89656 2.91797 8.05235 2.91797C8.20815 2.91797 8.35609 2.86146 8.4713 2.75819L8.849 3.13295C9.50622 5.03791 11.0439 6.56357 12.9638 7.21566L13.3389 7.58782C13.2348 7.70148 13.1779 7.84826 13.1779 8.00349C13.1779 8.15872 13.2348 8.30486 13.3382 8.41852L12.9625 8.79197C11.0223 9.44342 9.47414 10.9795 8.81758 12.9046L8.52694 13.1929H8.52825Z" fill="#151514"/>
<path d="M7.63537 2.80171C7.7532 2.89783 7.89918 2.94979 8.05301 2.94979C8.20684 2.94979 8.35282 2.89783 8.47064 2.80171L8.82151 3.14984C9.48265 5.05869 11.0236 6.58695 12.9474 7.24359L13.2957 7.58912C13.1988 7.70537 13.1464 7.85021 13.1464 8.00349C13.1464 8.15677 13.1988 8.30031 13.295 8.41722L12.9461 8.76405C11.0026 9.41938 9.45058 10.9587 8.79074 12.887L8.52956 13.1462C8.40584 13.0169 8.23564 12.9435 8.05301 12.9435C7.87038 12.9435 7.70018 13.0163 7.57646 13.1462L7.31658 12.8883C6.98928 11.9277 6.43157 11.0418 5.70365 10.3267C4.98948 9.62527 4.11036 9.08555 3.16054 8.7647L2.81033 8.41722C2.90721 8.30096 2.95957 8.15612 2.95957 8.00284C2.95957 7.84956 2.90721 7.70472 2.81033 7.58847L3.16119 7.24034C5.0844 6.58435 6.62402 5.05675 7.28582 3.14854L7.63537 2.80171ZM8.47261 2.71208C8.36525 2.81859 8.21666 2.88484 8.05301 2.88484C7.88936 2.88484 7.74076 2.81859 7.63341 2.71208L7.22887 3.11346C6.57231 5.02232 5.04905 6.53304 3.12584 7.18383L2.71999 7.58652C2.828 7.69303 2.89411 7.84047 2.89411 8.00284C2.89411 8.16522 2.828 8.31265 2.71999 8.41917L3.12518 8.8212C5.03203 9.4603 6.59325 10.9528 7.25963 12.9234L7.58039 13.2416C7.6884 13.1001 7.8599 13.0085 8.05301 13.0085C8.24611 13.0085 8.41762 13.1001 8.52563 13.2416L8.84769 12.9221C9.50229 10.9944 11.0393 9.47005 12.9815 8.82055L13.3854 8.41917C13.278 8.31265 13.2119 8.16586 13.2119 8.00349C13.2119 7.84112 13.278 7.69368 13.386 7.58717L12.9828 7.18708C11.0583 6.53564 9.53502 5.02427 8.87846 3.11476L8.47261 2.71208Z" fill="#151514"/>
<path d="M7.44554 13.4437C7.41215 13.3086 7.37419 13.1741 7.33295 13.0423L7.53718 13.2449C7.49464 13.3053 7.46387 13.3722 7.44554 13.4437Z" fill="#151514"/>
<path d="M7.40233 13.1566L7.49529 13.2488C7.47827 13.2748 7.46321 13.3027 7.45077 13.3306C7.43506 13.2722 7.41935 13.2144 7.40233 13.1566ZM7.25963 12.9234C7.34146 13.1644 7.40954 13.4118 7.46321 13.6664C7.4606 13.6437 7.45928 13.621 7.45928 13.5976C7.45928 13.4638 7.5038 13.3404 7.58039 13.2416L7.25963 12.9234Z" fill="#151514"/>
<path d="M8.05301 2.85239C7.91423 2.85239 7.78331 2.80238 7.68054 2.71145L8.05301 2.34189L8.42547 2.71145C8.3227 2.80238 8.19113 2.85239 8.05301 2.85239Z" fill="#151514"/>
<path d="M8.05301 2.38735L8.37703 2.70885C8.28473 2.7803 8.17149 2.81927 8.05301 2.81927C7.93453 2.81927 7.82128 2.7803 7.72898 2.70885L8.05301 2.38735ZM8.05301 2.29577L7.63341 2.71208C7.74076 2.81859 7.88936 2.88484 8.05301 2.88484C8.21666 2.88484 8.36525 2.81859 8.47261 2.71208L8.05301 2.29577Z" fill="#151514"/>
<path d="M7.30284 2.99397C7.35914 2.81861 7.40758 2.64 7.44881 2.46139C7.47434 2.55361 7.52147 2.63935 7.58759 2.71144L7.30284 2.99397Z" fill="#151514"/>
<path d="M7.45601 2.57375C7.47893 2.62246 7.50838 2.66793 7.54307 2.71014L7.37288 2.87901C7.40299 2.77769 7.43048 2.67637 7.45601 2.57375ZM7.46256 2.23796C7.40495 2.53738 7.32641 2.82964 7.22887 3.11346L7.63341 2.71208C7.5254 2.60556 7.45928 2.45879 7.45928 2.29577C7.45928 2.27628 7.45994 2.2568 7.46256 2.23796Z" fill="#151514"/>
<path d="M8.51843 2.71144C8.5852 2.6387 8.63233 2.55232 8.65786 2.45814C8.6991 2.63935 8.74819 2.81861 8.80449 2.99462L8.51843 2.71079V2.71144Z" fill="#151514"/>
<path d="M8.65131 2.5718C8.67684 2.67507 8.70433 2.77834 8.7351 2.88031L8.56359 2.71014C8.59894 2.66793 8.6284 2.62116 8.65131 2.5718ZM8.64215 2.22172C8.64542 2.24576 8.64673 2.27044 8.64673 2.29577C8.64673 2.45879 8.58062 2.60556 8.47261 2.71208L8.87846 3.11476C8.77896 2.82574 8.69975 2.52763 8.64215 2.22172Z" fill="#151514"/>
<path d="M8.05301 2.24964L7.63406 2.66532C7.54242 2.564 7.49201 2.43345 7.49201 2.29576C7.49201 2.27757 7.49201 2.26003 7.49463 2.2425V2.23665C7.50249 2.20548 7.50773 2.17365 7.51362 2.14247C7.58039 1.90606 7.80295 1.73979 8.05301 1.73979C8.30306 1.73979 8.52956 1.90931 8.59502 2.15157V2.16131L8.59894 2.16521C8.60352 2.18534 8.60745 2.20548 8.61007 2.22626C8.61269 2.24769 8.61465 2.27042 8.61465 2.2964C8.61465 2.43475 8.56425 2.56464 8.47261 2.66596L8.05366 2.25029L8.05301 2.24964Z" fill="#151514"/>
<path d="M8.05301 1.77161C8.29128 1.77161 8.5001 1.92944 8.56229 2.15611V2.17495L8.56883 2.18079C8.57211 2.19703 8.57538 2.21327 8.57734 2.23016C8.57996 2.24964 8.58127 2.27107 8.58127 2.29576C8.58127 2.41396 8.54199 2.52632 8.46999 2.61725L8.05301 2.20353L7.63603 2.61725C7.56402 2.52567 7.52474 2.41396 7.52474 2.29576C7.52474 2.27497 7.5254 2.26003 7.52736 2.24704V2.2425C7.53391 2.21197 7.53915 2.18209 7.54438 2.15157C7.60919 1.92814 7.81735 1.77291 8.0517 1.77291M8.05301 1.70667C7.78069 1.70667 7.55159 1.88852 7.48154 2.13598C7.47565 2.1691 7.46976 2.20223 7.46256 2.23535C7.46256 2.236 7.4619 2.23731 7.46256 2.23796C7.45994 2.2568 7.45928 2.27628 7.45928 2.29577C7.45928 2.45879 7.5254 2.60556 7.63341 2.71208L8.05301 2.29577L8.47261 2.71208C8.58062 2.60556 8.64673 2.45879 8.64673 2.29577C8.64673 2.27044 8.64542 2.24576 8.64215 2.22172C8.63887 2.19639 8.63429 2.17235 8.6284 2.14832C8.6284 2.14832 8.62818 2.14789 8.62775 2.14702C8.56163 1.89372 8.32925 1.70667 8.05301 1.70667Z" fill="#151514"/>
<path d="M7.48154 2.13598C7.47238 2.16781 7.46583 2.20158 7.46256 2.23535C7.46976 2.20223 7.47565 2.1691 7.48154 2.13598Z" fill="#151514"/>
<path d="M2.34686 8.00286L2.71934 7.6333C2.81098 7.73462 2.86138 7.86517 2.86138 8.00286C2.86138 8.14055 2.81098 8.2711 2.71934 8.37242L2.34686 8.00286Z" fill="#151514"/>
<path d="M2.71737 7.68136C2.78938 7.77294 2.82865 7.88465 2.82865 8.00286C2.82865 8.12107 2.78938 8.23343 2.71737 8.32436L2.39335 8.00286L2.71737 7.68136ZM2.71999 7.58652L2.30039 8.00286L2.71999 8.41917C2.828 8.31265 2.89411 8.16522 2.89411 8.00284C2.89411 7.84047 2.828 7.69303 2.71999 7.58652Z" fill="#151514"/>
<path d="M2.71934 7.54106C2.64602 7.47481 2.55896 7.42805 2.46535 7.40272C2.64733 7.3618 2.828 7.31309 3.0054 7.25723L2.71934 7.54106Z" fill="#151514"/>
<path d="M2.88887 7.32673L2.71737 7.49689C2.67482 7.46182 2.62835 7.43259 2.5786 7.40986C2.68268 7.38453 2.7861 7.35725 2.88887 7.32673ZM3.12584 7.18383C2.83651 7.2819 2.53801 7.3605 2.23165 7.41766C2.25457 7.41506 2.27748 7.41376 2.30039 7.41376C2.46404 7.41376 2.61264 7.47935 2.71999 7.58652L3.12584 7.18383Z" fill="#151514"/>
<path d="M3.0054 8.74782C2.82669 8.69196 2.64536 8.64325 2.46339 8.60298C2.5583 8.57765 2.64537 8.53089 2.71934 8.46399L3.0054 8.74782Z" fill="#151514"/>
<path d="M2.71803 8.5088L2.88953 8.67897C2.7861 8.64909 2.68268 8.62117 2.57794 8.59648C2.62769 8.57375 2.67482 8.54388 2.71803 8.5088ZM2.71999 8.41917C2.61264 8.52633 2.46404 8.59194 2.30039 8.59194C2.26962 8.59194 2.23951 8.58934 2.21006 8.58544C2.5223 8.64195 2.828 8.72118 3.12518 8.8212L2.71999 8.41917Z" fill="#151514"/>
<path d="M2.30039 8.55947C2.27421 8.55947 2.24606 8.55752 2.21463 8.55297C2.20482 8.55102 2.19369 8.54973 2.18322 8.54713C1.92596 8.49192 1.74005 8.2633 1.74005 8.00285C1.74005 7.74241 1.91155 7.52937 2.15703 7.46442C2.18256 7.46053 2.21071 7.45533 2.23885 7.44948C2.25784 7.44754 2.27944 7.44624 2.30105 7.44624C2.44048 7.44624 2.57139 7.49625 2.67351 7.58718L2.25456 8.00285L2.67351 8.41853C2.57139 8.50946 2.43982 8.55947 2.30105 8.55947H2.30039Z" fill="#151514"/>
<path d="M2.30039 7.47871C2.41953 7.47871 2.53277 7.51768 2.62441 7.58913L2.20743 8.00285L2.62441 8.41658C2.53212 8.48802 2.41953 8.52699 2.30039 8.52699C2.27552 8.52699 2.24868 8.52504 2.22053 8.52115C2.21006 8.5192 2.20023 8.5179 2.1891 8.5153C1.94756 8.46399 1.77212 8.24836 1.77212 8.00285C1.77212 7.75734 1.93185 7.5586 2.16162 7.4969C2.18845 7.49235 2.21464 7.48781 2.24213 7.48196C2.26177 7.48001 2.28141 7.47871 2.30039 7.47871ZM2.30039 7.41376C2.27748 7.41376 2.25457 7.41506 2.23165 7.41766C2.20351 7.4235 2.17602 7.4287 2.14787 7.43325C1.89389 7.50015 1.70667 7.73007 1.70667 8.00285C1.70667 8.27564 1.90763 8.5218 2.17536 8.57895C2.18649 8.58155 2.19827 8.5835 2.21006 8.58544C2.23951 8.58934 2.26962 8.59194 2.30039 8.59194C2.46404 8.59194 2.61264 8.52633 2.71999 8.41917L2.30039 8.00286L2.71999 7.58652C2.61264 7.47935 2.46404 7.41376 2.30039 7.41376Z" fill="#151514"/>
<path d="M7.62424 13.2391C7.73094 13.1124 7.88543 13.041 8.05301 13.041C8.22059 13.041 8.37507 13.1131 8.48177 13.2391L8.05301 13.6645L7.62424 13.2391Z" fill="#151514"/>
<path d="M8.05301 13.0734C8.20029 13.0734 8.33776 13.1326 8.4366 13.2378L8.05301 13.6184L7.66941 13.2378C7.76891 13.1326 7.90572 13.0734 8.05301 13.0734ZM8.05301 13.0085C7.8599 13.0085 7.6884 13.1001 7.58039 13.2416L8.05301 13.7106L8.52563 13.2416C8.41762 13.1001 8.24611 13.0085 8.05301 13.0085Z" fill="#151514"/>
<path d="M8.66048 13.4443C8.64215 13.3729 8.61138 13.3053 8.56883 13.2449L8.77438 13.041C8.73248 13.1728 8.69452 13.3079 8.66113 13.4443H8.66048Z" fill="#151514"/>
<path d="M8.70499 13.1559C8.68797 13.2144 8.6716 13.2728 8.65589 13.3319C8.6428 13.3034 8.62775 13.2761 8.61073 13.2495L8.70499 13.1559ZM8.84769 12.9221L8.52563 13.2416C8.60221 13.3404 8.64673 13.4638 8.64673 13.5976C8.64673 13.6242 8.64477 13.6502 8.64149 13.6762C8.69517 13.419 8.7639 13.167 8.84769 12.9221Z" fill="#151514"/>
<path d="M8.05301 14.1542C7.80295 14.1542 7.58104 13.9879 7.51296 13.7489C7.50838 13.7216 7.50183 13.6905 7.49529 13.6593C7.49333 13.6411 7.49201 13.619 7.49201 13.5969C7.49201 13.4859 7.52409 13.3813 7.58431 13.291L8.05301 13.7561L8.5217 13.291C8.58258 13.3813 8.614 13.4859 8.614 13.5969C8.614 13.621 8.61269 13.645 8.60876 13.6716C8.60418 13.6937 8.59829 13.719 8.59436 13.7444C8.52956 13.984 8.30634 14.1542 8.05235 14.1542H8.05301Z" fill="#151514"/>
<path d="M7.59086 13.3436L8.05366 13.8028L8.51646 13.3436C8.55967 13.4203 8.58258 13.5066 8.58258 13.5976C8.58258 13.619 8.58127 13.6411 8.578 13.6651C8.57342 13.6872 8.56817 13.7112 8.56425 13.7359C8.5014 13.9632 8.29194 14.1217 8.05432 14.1217C7.8167 14.1217 7.61181 13.9665 7.547 13.7437C7.54177 13.7145 7.53587 13.6853 7.52933 13.656C7.52737 13.6365 7.52605 13.6177 7.52605 13.5976C7.52605 13.5066 7.54896 13.4203 7.59217 13.3436M8.52563 13.2416L8.05301 13.7106L7.58039 13.2416C7.5038 13.3404 7.45928 13.4638 7.45928 13.5976C7.45928 13.621 7.4606 13.6437 7.46321 13.6664C7.46976 13.697 7.47631 13.7275 7.48154 13.758C7.55224 14.0055 7.78135 14.1867 8.05301 14.1867C8.32467 14.1867 8.55901 14.0016 8.62709 13.7496C8.63102 13.7249 8.63626 13.7002 8.64149 13.6762C8.64477 13.6502 8.64673 13.6242 8.64673 13.5976C8.64673 13.4638 8.60221 13.3404 8.52563 13.2416Z" fill="#151514"/>
<path d="M7.46321 13.6664C7.46714 13.6976 7.47303 13.7281 7.48154 13.758C7.47631 13.7275 7.46976 13.697 7.46321 13.6664Z" fill="#151514"/>
<path d="M13.386 8.37241C13.2944 8.27044 13.2446 8.14119 13.2446 8.0035C13.2446 7.8658 13.295 7.73526 13.3867 7.63393L13.7585 8.00285L13.386 8.37241Z" fill="#151514"/>
<path d="M13.3886 7.682L13.712 8.00285L13.388 8.32435C13.316 8.23277 13.2774 8.12105 13.2774 8.0035C13.2774 7.88594 13.3166 7.77293 13.3886 7.682ZM13.386 7.58717C13.278 7.69368 13.2119 7.84047 13.2119 8.00349C13.2119 8.16651 13.278 8.31265 13.3854 8.41917L13.805 8.00285L13.386 7.58717Z" fill="#151514"/>
<path d="M13.1032 7.2605C13.2774 7.31571 13.4561 7.36377 13.6374 7.40404C13.5451 7.42937 13.4593 7.47613 13.3867 7.54108L13.1032 7.25985V7.2605Z" fill="#151514"/>
<path d="M13.2198 7.32999C13.3206 7.35922 13.422 7.3865 13.5248 7.41183C13.4764 7.43456 13.4305 7.46314 13.3886 7.49756L13.2198 7.32999ZM12.9828 7.18708L13.386 7.58717C13.4934 7.48065 13.642 7.41443 13.8056 7.41443C13.8226 7.41443 13.8397 7.41508 13.8567 7.41703C13.5575 7.35987 13.2656 7.2832 12.9828 7.18708Z" fill="#151514"/>
<path d="M13.386 8.46464C13.46 8.53154 13.5477 8.57895 13.6426 8.60363C13.46 8.6439 13.2787 8.69196 13.1013 8.74717L13.386 8.46399V8.46464Z" fill="#151514"/>
<path d="M13.3873 8.5088C13.4305 8.54388 13.4777 8.57375 13.5274 8.59648C13.4227 8.62117 13.3193 8.64909 13.2165 8.67832L13.3873 8.50815M13.3854 8.41917L12.9815 8.82055C13.2774 8.72118 13.5831 8.6426 13.896 8.58609C13.8665 8.58999 13.8364 8.59259 13.8056 8.59259C13.6413 8.59259 13.4927 8.52633 13.3854 8.41917Z" fill="#151514"/>
<path d="M13.8056 8.56013C13.6662 8.56013 13.5353 8.51012 13.4325 8.41854L13.8514 8.00287L13.4332 7.58784C13.5359 7.49691 13.6675 7.4469 13.8056 7.4469C13.8213 7.4469 13.837 7.4469 13.8528 7.4495C13.8881 7.45665 13.9261 7.46379 13.964 7.46964C14.1997 7.53653 14.3673 7.75671 14.3673 8.00417C14.3673 8.26656 14.1794 8.49518 13.9215 8.54909L13.8907 8.55494C13.8606 8.55883 13.8325 8.56078 13.8063 8.56078L13.8056 8.56013Z" fill="#151514"/>
<path d="M13.8056 7.47938C13.8213 7.47938 13.8344 7.47938 13.8469 7.48133C13.8829 7.48847 13.9189 7.49496 13.9549 7.50081C14.1787 7.56576 14.3345 7.77165 14.3345 8.00352C14.3345 8.25032 14.1578 8.46596 13.9162 8.51662C13.9058 8.51856 13.896 8.52051 13.8875 8.52181C13.8573 8.52571 13.8305 8.52766 13.8056 8.52766C13.6865 8.52766 13.5732 8.48869 13.4803 8.41659L13.8973 8.00287L13.4809 7.58979C13.5732 7.51835 13.6865 7.47938 13.805 7.47938M13.8056 7.41443C13.642 7.41443 13.4934 7.48065 13.386 7.58717L13.805 8.00285L13.3854 8.41917C13.4927 8.52633 13.6413 8.59259 13.8056 8.59259C13.8364 8.59259 13.8665 8.58999 13.896 8.58609C13.9071 8.58415 13.9176 8.58221 13.928 8.58027C14.1971 8.52441 14.4 8.28735 14.4 8.00352C14.4 7.73463 14.218 7.50731 13.9693 7.43716C13.9313 7.43131 13.894 7.42417 13.8567 7.41703C13.8397 7.41508 13.8226 7.41443 13.8056 7.41443Z" fill="#151514"/>
<path d="M13.9693 7.43716C13.9313 7.43131 13.894 7.42417 13.8567 7.41703C13.8953 7.41962 13.9326 7.42677 13.9693 7.43716Z" fill="#151514"/>
<path d="M32 8.37333H16.1022C16.0709 8.37333 16.0557 8.32953 16.0769 8.3065C16.1563 8.2203 16.2051 8.10338 16.2051 7.97458C16.2051 7.84557 16.1562 7.7272 16.0766 7.64038C16.0554 7.61729 16.0706 7.57333 16.102 7.57333H32V8.37333Z" fill="#151514"/>
<path d="M7.57332 32L7.57332 16.1022C7.57332 16.0709 7.61713 16.0557 7.64015 16.0769C7.72635 16.1563 7.84327 16.2051 7.97207 16.2051C8.10108 16.2051 8.21946 16.1562 8.30627 16.0766C8.32936 16.0554 8.37332 16.0706 8.37332 16.102L8.37332 32L7.57332 32Z" fill="#151514"/>
<path d="M25.339 16.9518L25.6531 17.7583C25.3477 17.9345 24.929 18.1637 24.3968 18.4457C23.8646 18.7189 23.376 18.9613 22.9311 19.1728V17.4806C23.2364 17.3308 23.6683 17.1017 24.2266 16.7932C24.7937 16.4847 25.2736 16.2203 25.6662 16H26.9356V26.0113H25.339V16.9518Z" fill="#151514"/>
<path d="M17.7112 26.0267C16.8478 26.0267 16.1535 25.8709 15.6284 25.5594C15.1121 25.239 14.7027 24.8117 14.4001 24.2777L15.6818 23.4366C15.8776 23.846 16.1446 24.1531 16.4829 24.3578C16.83 24.5625 17.2394 24.6649 17.7112 24.6649C18.2897 24.6649 18.7481 24.5358 19.0863 24.2777C19.4245 24.0107 19.5937 23.6146 19.5937 23.0894C19.5937 22.5465 19.4067 22.1682 19.0329 21.9546C18.668 21.7321 18.1384 21.6208 17.4441 21.6208H16.5897V20.3525H17.324C17.68 20.3525 18.0093 20.2768 18.312 20.1255C18.6235 19.9742 18.8682 19.7695 19.0463 19.5113C19.2332 19.2443 19.3266 18.9461 19.3266 18.6168C19.3266 18.1985 19.1842 17.8825 18.8994 17.6689C18.6146 17.4464 18.2229 17.3351 17.7245 17.3351C17.1015 17.3351 16.6564 17.482 16.3894 17.7757C16.1224 18.0605 16.0022 18.4432 16.0289 18.9239L14.5069 19.1509C14.4624 18.4566 14.5826 17.8736 14.8674 17.4019C15.1522 16.9301 15.5527 16.5785 16.069 16.3471C16.5852 16.1157 17.1682 16 17.818 16C18.4321 16 18.9751 16.1024 19.4468 16.3071C19.9274 16.5029 20.3013 16.7833 20.5683 17.1482C20.8353 17.5131 20.9688 17.9404 20.9688 18.4299C20.9688 19.0529 20.7507 19.5959 20.3146 20.0587C19.8874 20.5216 19.3133 20.8153 18.5923 20.9399L18.4455 20.5928C19.0774 20.6017 19.6026 20.7129 20.0209 20.9266C20.4392 21.1313 20.7463 21.4116 20.9421 21.7677C21.1468 22.1237 21.2492 22.5331 21.2492 22.996C21.2492 23.5033 21.129 23.9884 20.8887 24.4512C20.6573 24.9052 20.279 25.2835 19.7539 25.5861C19.2287 25.8798 18.5478 26.0267 17.7112 26.0267Z" fill="#151514"/>
</g>
<path d="M149.225 13.52L149.216 20.992C149.216 21.3888 149.306 21.6768 149.485 21.856C149.677 22.0224 149.997 22.1056 150.445 22.1056H151.789V23.9296H150.061C149.075 23.9296 148.32 23.6992 147.795 23.2384C147.27 22.7776 147.008 22.0288 147.008 20.992L147.008 13.52H145.76L145.778 11.84H147.026L147.072 8H149.28L149.234 11.84H151.807L151.798 13.52H149.225Z" fill="#151514"/>
<path d="M132.32 17.8666C132.32 16.684 132.563 15.6369 133.05 14.7251C133.552 13.8132 134.225 13.108 135.07 12.6093C135.929 12.0964 136.875 11.84 137.906 11.84C138.837 11.84 139.646 12.0252 140.334 12.3956C141.035 12.7518 141.594 13.2006 142.009 13.742V11.84H144.48V23.8077H142.009V22.0553C141.594 22.6109 141.028 23.0739 140.312 23.4444C139.596 23.8148 138.78 24 137.863 24C136.846 24 135.915 23.7435 135.07 23.2306C134.225 22.7035 133.552 21.9769 133.05 21.0508C132.563 20.1105 132.32 19.0491 132.32 17.8666ZM142.009 17.9093C142.009 17.0972 141.837 16.392 141.494 15.7936C141.164 15.1952 140.727 14.7393 140.183 14.4259C139.639 14.1124 139.052 13.9557 138.421 13.9557C137.791 13.9557 137.204 14.1124 136.66 14.4259C136.116 14.7251 135.672 15.1738 135.328 15.7722C134.998 16.3564 134.834 17.0545 134.834 17.8666C134.834 18.6787 134.998 19.391 135.328 20.0037C135.672 20.6163 136.116 21.0864 136.66 21.4141C137.218 21.7276 137.806 21.8843 138.421 21.8843C139.052 21.8843 139.639 21.7276 140.183 21.4141C140.727 21.1007 141.164 20.6448 141.494 20.0464C141.837 19.4338 142.009 18.7214 142.009 17.9093Z" fill="#151514"/>
<path d="M126.084 11.84C127.03 11.84 127.874 12.0354 128.616 12.4263C129.373 12.8171 129.963 13.3962 130.385 14.1634C130.822 14.9307 131.04 15.8571 131.04 16.9429V24H128.573V17.312C128.573 16.2408 128.303 15.4229 127.765 14.8583C127.226 14.2792 126.491 13.9897 125.56 13.9897C124.628 13.9897 123.886 14.2792 123.332 14.8583C122.794 15.4229 122.525 16.2408 122.525 17.312V24H120.057V17.312C120.057 16.2408 119.788 15.4229 119.249 14.8583C118.711 14.2792 117.976 13.9897 117.044 13.9897C116.113 13.9897 115.37 14.2792 114.817 14.8583C114.278 15.4229 114.009 16.2408 114.009 17.312V24H111.52V11.84H114.009V13.4034C114.417 12.9112 114.933 12.5276 115.559 12.2526C116.185 11.9775 116.855 11.84 117.568 11.84C118.529 11.84 119.388 12.0427 120.145 12.448C120.902 12.8533 121.484 13.4396 121.891 14.2069C122.255 13.483 122.823 12.9112 123.594 12.4914C124.366 12.0571 125.196 11.84 126.084 11.84Z" fill="#151514"/>
<path d="M103.24 18.4703L108.32 24H105.24L101.16 19.2344V24H98.88V8H101.16V17.7665L105.16 11.84H108.32L103.24 18.4703Z" fill="#151514"/>
<path d="M85.92 17.9093C85.92 16.6983 86.1667 15.6369 86.6602 14.7251C87.1682 13.799 87.8649 13.0866 88.7503 12.588C89.6357 12.0893 90.6517 11.84 91.7984 11.84C93.2499 11.84 94.4473 12.1819 95.3908 12.8658C96.3487 13.5354 97.8174 15.44 97.5729 16.96H94.895C94.895 15.36 94.0845 14.7108 93.6055 14.3831C93.1265 14.0554 92.5241 13.8916 91.7984 13.8916C90.7824 13.8916 89.9696 14.2478 89.3599 14.9601C88.7648 15.6582 88.4673 16.6413 88.4673 17.9093C88.4673 19.1773 88.7648 20.1675 89.3599 20.8799C89.9696 21.5922 90.7824 21.9484 91.7984 21.9484C93.2354 21.9484 94.1141 21.5595 94.5786 20.32H97.2565C96.9081 21.5168 96.327 22.2405 95.369 22.9528C94.411 23.6509 93.2208 24 91.7984 24C90.6517 24 89.6357 23.7507 88.7503 23.252C87.8649 22.7391 87.1682 22.0268 86.6602 21.1149C86.1667 20.1889 85.92 19.1203 85.92 17.9093Z" fill="#151514"/>
<path d="M84.64 17.6315C84.64 18.0732 84.6328 18.6858 84.5755 19.042H75.5197C75.5914 19.9823 75.9212 20.5237 76.5522 21.0936C77.1831 21.6635 77.9575 21.9484 78.8753 21.9484C80.1946 21.9484 81.1267 21.3999 81.6716 20.3028H84.3173C83.9588 21.3856 83.3064 22.2761 82.3599 22.9742C81.4278 23.6581 80.2663 24 78.8753 24C77.7424 24 76.7243 23.7507 75.8208 23.252C74.9318 22.7391 74.2291 22.0268 73.7128 21.1149C73.2109 20.1889 72.96 19.1203 72.96 17.9093C72.96 16.6983 73.2038 15.6369 73.6913 14.7251C74.1932 13.799 74.8887 13.0866 75.7778 12.588C76.6812 12.0893 77.7137 11.84 78.8753 11.84C79.9938 11.84 80.9904 12.0822 81.8652 12.5666C82.7399 13.051 83.4211 13.7349 83.9086 14.6182C84.3962 15.4873 84.64 16.4917 84.64 17.6315ZM82.0803 16.96C82.0659 16.0624 81.7433 15.2451 81.1123 14.7037C80.4814 14.1623 79.6998 13.8916 78.7677 13.8916C77.9217 13.8916 77.1975 14.1623 76.5952 14.7037C75.9929 15.2308 75.6344 16.0482 75.5197 16.96H82.0803Z" fill="#151514"/>
<path d="M164.767 17.6315C164.767 18.0732 164.76 18.6858 164.702 19.042H155.647C155.718 19.9823 156.048 20.5237 156.679 21.0936C157.31 21.6635 158.084 21.9484 159.002 21.9484C160.321 21.9484 161.254 21.3999 161.798 20.3028H164.444C164.086 21.3856 163.433 22.2761 162.487 22.9742C161.555 23.6581 160.393 24 159.002 24C157.869 24 156.851 23.7507 155.948 23.252C155.059 22.7391 154.356 22.0268 153.84 21.1149C153.338 20.1889 153.087 19.1203 153.087 17.9093C153.087 16.6983 153.331 15.6369 153.818 14.7251C154.32 13.799 155.016 13.0866 155.905 12.588C156.808 12.0893 157.841 11.84 159.002 11.84C160.121 11.84 161.117 12.0822 161.992 12.5666C162.867 13.051 163.548 13.7349 164.036 14.6182C164.523 15.4873 164.767 16.4917 164.767 17.6315ZM162.207 16.96C162.193 16.0624 161.87 15.2451 161.239 14.7037C160.608 14.1623 159.827 13.8916 158.895 13.8916C158.049 13.8916 157.324 14.1623 156.722 14.7037C156.12 15.2308 155.761 16.0482 155.647 16.96H162.207Z" fill="#151514"/>
<path d="M66.9524 11.8919C67.859 11.8919 68.665 12.0865 69.3701 12.4757C70.0897 12.8649 70.651 13.4414 71.054 14.2054C71.4713 14.9694 71.68 15.8919 71.68 16.973V24H69.2406V17.3405C69.2406 16.2739 68.9744 15.4595 68.4419 14.8973C67.9094 14.3207 67.1826 14.0324 66.2616 14.0324C65.3405 14.0324 64.6065 14.3207 64.0597 14.8973C63.5272 15.4595 63.2609 16.2739 63.2609 17.3405V24H60.8V8H63.2609V13.4703C63.6783 12.9658 64.2036 12.5766 64.8368 12.3027C65.4844 12.0288 66.1896 11.8919 66.9524 11.8919Z" fill="#151514"/>
<path d="M44 16C44 14.4676 44.3586 13.093 45.0759 11.8761C45.8084 10.6592 46.7927 9.71268 48.0288 9.03662C49.2802 8.34554 50.646 8 52.1263 8C53.8202 8 55.3233 8.41315 56.6358 9.23944C57.9634 10.0507 58.9248 11.2977 59.52 12.8H56.384C55.9719 11.9737 55.3996 11.2676 54.6671 10.862C53.9346 10.4563 53.0877 10.2535 52.1263 10.2535C51.0733 10.2535 50.1347 10.4864 49.3107 10.9521C48.4866 11.4178 47.838 12.0864 47.365 12.9577C46.9071 13.8291 46.6782 14.8432 46.6782 16C46.6782 17.1568 46.9071 18.1709 47.365 19.0423C47.838 19.9136 48.4866 20.5897 49.3107 21.0704C50.1347 21.5361 51.0733 21.769 52.1263 21.769C53.0877 21.769 53.9346 21.5662 54.6671 21.1606C55.3996 20.7549 55.9719 20.0263 56.384 19.2H59.52C58.9248 20.7023 57.9634 21.9718 56.6358 22.7831C55.3233 23.5944 53.8202 24 52.1263 24C50.6307 24 49.2649 23.662 48.0288 22.9859C46.7927 22.2948 45.8084 21.3408 45.0759 20.1239C44.3586 18.907 44 17.5324 44 16Z" fill="#151514"/>
<defs>
<clipPath id="clip0_1106_212">
<rect width="32" height="32" fill="white"/>
</clipPath>
</defs>
</svg>
